<ttFont>
          <CharString index="0">
            1296 43 rmoveto
            -490 607 rlineto
            -572 -43 79 hlineto
            -90 callgsubr
            9 28 20 31 hvcurveto
            443 hlineto
            37 -46 rlineto
            20 -25 9 -20 -17 vvcurveto
            -28 -26 -15 -33 vhcurveto
            -74 -43 751 43 hlineto
            -1089 199 rmoveto
            179 232 188 -232 rlineto
            240 -199 rmoveto
            -455 564 rlineto
            77 hlineto
            455 -564 rlineto
            return
          </CharString>
          <CharString index="1">
            688 25 callsubr
            -491 -92 callsubr
            7 22 16 27 hvcurveto
            374 hlineto
            31 -39 rlineto
            16 -20 7 -17 -14 vvcurveto
            -22 -21 -11 -26 vhcurveto
            -66 -43 644 43 -99 hlineto
            -679 472 rmoveto
            61 hlineto
            380 -472 rlineto
            -60 hlineto
            -378 360 rmoveto
            157 -196 rlineto
            -309 hlineto
            return
          </CharString>
          <CharString index="2">
            -97 callsubr
            -104 callgsubr
            456 hmoveto
            -36 12 -30 19 -21 -49 callgsubr
            return
          </CharString>
          <CharString index="3">
            804 605 rmoveto
            -15 callgsubr
            hvcurveto
            63 callgsubr
            -1207 58 callsubr
            61 48 -19 callsubr
            -100 callsubr
            vhcurveto
            -369 -562 -20 callsubr
            return
          </CharString>
          <CharString index="4">
            -81 callgsubr
            -49 18 -34 34 36 vvcurveto
            36 34 34 49 18 -82 callgsubr
            return
          </CharString>
          <CharString index="5">
            -442 -257 -103 callgsubr
            return
          </CharString>
          <CharString index="6">
            -45 callsubr
            -93 callsubr
            vhcurveto
            return
          </CharString>
          <CharString index="7">
            -80 -48 -28 -61 4 callsubr
            1207 63 callsubr
            hlineto
            -97 callgsubr
            return
          </CharString>
          <CharString index="8">
            -73 callsubr
            -204 25 rmoveto
            -90 callsubr
            endchar
          </CharString>
          <CharString index="9">
            -66 -39 -22 -50 53 callgsubr
            -99 callgsubr
            vhcurveto
            return
          </CharString>
          <CharString index="10">
            -456 hmoveto
            -101 callsubr
            -196 hmoveto
            -36 12 -30 19 -21 -49 callgsubr
            return
          </CharString>
          <CharString index="11">
            757 -9 callgsubr
            vlineto
            61 129 -23 -173 hvcurveto
            -237 vlineto
            -77 -43 -66 -212 -84 -31 42 94 vhcurveto
            332 vlineto
            80 48 28 60 vhcurveto
            16 43 -661 -43 38 hlineto
            60 48 -28 -80 hvcurveto
            -322 vlineto
            -81 34 -118 432 348 12 118 124 vhcurveto
            191 vlineto
            173 101 23 99 vhcurveto
            43 vlineto
            return
          </CharString>
          <CharString index="12">
            1121 280 rmoveto
            165 -213 135 -336 -28 callsubr
            -167 247 -135 303 -26 callsubr
            vhcurveto
            -549 256 rmoveto
            141 38 -88 -170 -170 -66 -87 -113 return
          </CharString>
          <CharString index="13">
            hmoveto
            -103 callsubr
            return
          </CharString>
          <CharString index="14">
            -75 -61 -52 -63 -63 61 -50 75 77 61 50 63 return
          </CharString>
          <CharString index="15">
            -43 70 hlineto
            67 14 -17 -27 22 hvcurveto
            28 -35 -254 -325 rlineto
            0 -50 -68 -108 vhcurveto
            -43 376 43 -82 vlineto
            -35 -26 20 35 19 return
          </CharString>
          <CharString index="16">
            rmoveto
            -134 -146 rlineto
            297 hlineto
            104 112 103 -112 rlineto
            87 hlineto
            -133 146 rlineto
            return
          </CharString>
          <CharString index="17">
            30 10 53 28 18 37 rrcurveto
            64 hlineto
            -17 -25 -44 -49 -104 -5 rrcurveto
            return
          </CharString>
          <CharString index="18">
            679 515 rmoveto
            45 hlineto
            53 28 -25 -33 -28 -20 -35 -41 -34 hvcurveto
            -47 -39 -108 106 rlineto
            -17 16 -9 21 15 vvcurveto
            20 15 16 24 vhcurveto
            27 43 -643 -43 89 hlineto
            287 -284 rlineto
            -100 vlineto
            -65 -41 -23 -48 vhcurveto
            -107 38 callsubr
            23 65 hvcurveto
            118 vlineto
            372 266 rlineto
            58 43 -450 hlineto
            -205 -515 rmoveto
            -49 208 hlineto
            -267 264 rlineto
            66 hlineto
            250 -246 rlineto
            return
          </CharString>
          <CharString index="19">
            11 callgsubr
            -44 124 82 -20 48 -20 -54 callgsubr
            hintmask 1101110110000000
            -94 callgsubr
            hintmask 1011101110000000
            -102 callsubr
            return
          </CharString>
          <CharString index="20">
            vstem
            673 43 rmoveto
            -51 -17 22 62 hvcurveto
            66 vlineto
            36 15 37 56 72 53 -19 -66 28 vhcurveto
            37 218 -36 hlineto
            -42 -28 -54 -36 -72 hhcurveto
            -56 -15 38 35 hvcurveto
            41 vlineto
            46 34 34 58 208 65 -66 -56 46 vhcurveto
            27 165 -970 -43 105 hlineto
            49 -4 callsubr
            -49 vhcurveto
            -105 -43 717 43 hlineto
            -460 hmoveto
            11 callsubr
            return
          </CharString>
          <CharString index="21">
            rmoveto
            -101 callsubr
            return
          </CharString>
          <CharString index="22">
            126 rmoveto
            -92 callgsubr
            return
          </CharString>
          <CharString index="23">
            rmoveto
            -103 callsubr
            464 -94 callsubr
            -348 -85 callsubr
            464 hmoveto
            -33 callsubr
          </CharString>
          <CharString index="24">
            606 131 rmoveto
            -66 41 -22 49 vhcurveto
            106 -43 -729 43 71 callsubr
            22 66 hvcurveto
            294 vlineto
            48 -41 42 -49 vhcurveto
            -106 43 729 -43 12 callsubr
            28 callsubr
            -224 90 rmoveto
            -51 -472 51 hlineto
            return
          </CharString>
          <CharString index="25">
            74 0 43 223 56 193 -37 callsubr
            40 callgsubr
            hintmask 11101111
            -102 callgsubr
            return
          </CharString>
          <CharString index="26">
            -42 callsubr
            -43 145 110 -20 hstemhm
            hintmask 11101000
            -107 callsubr
            return
          </CharString>
          <CharString index="27">
            -95 callgsubr
            691 -316 rmoveto
            -88 callgsubr
            return
          </CharString>
          <CharString index="28">
            -140 -93 50 -84 hhcurveto
            -14 -14 -2 -3 -14 hvcurveto
            -3 4 rlineto
            16 18 25 14 37 hhcurveto
            return
          </CharString>
          <CharString index="29">
            rmoveto
            hintmask 1101010010000000
            12 callgsubr
            62 callgsubr
            -79 callsubr
            hintmask 1110001010000000
            -15 callsubr
            hintmask 1110100010000000
            -37 callgsubr
            hintmask 1110010010000000
            1 callgsubr
            62 callgsubr
            -70 callsubr
            hintmask 1110010010000000
            0 callsubr
            hintmask 1110100010000000
            -71 callgsubr
          </CharString>
          <CharString index="30">
            rmoveto
            124 29 24 99 0 vvcurveto
            -291 hlineto
            return
          </CharString>
          <CharString index="31">
            861 515 rmoveto
            84 110 -19 -144 -17 -11 -4 -5 -14 -62 39 2 -4 hvcurveto
            -295 186 rlineto
            -641 -43 hlineto
            140 138 -73 -115 hvcurveto
            -88 vlineto
            -145 -154 -51 -114 vhcurveto
            -43 596 43 vlineto
            -112 -155 51 145 hvcurveto
            38 vlineto
            46 20 11 19 vhcurveto
            21 21 -12 -1 hhcurveto
            592 -358 rlineto
            81 388 hlineto
            144 110 19 84 vhcurveto
            43 -448 vlineto
            -529 -85 rmoveto
            42 18 vlineto
            683 -423 rlineto
            -54 vlineto
            return
          </CharString>
          <CharString index="32">
            -210 -25 -68 callsubr
          </CharString>
          <CharString index="33">
            107 -22 53 576 65 callgsubr
            186 -9 callsubr
            370 65 hintmask 11011110
            -96 callsubr
            return
          </CharString>
          <CharString index="34">
            -36 54 vlineto
            87 183 0 18 78 hvcurveto
            return
          </CharString>
          <CharString index="35">
            -113 -92 -57 -69 -69 92 -56 113 113 92 56 69 return
          </CharString>
          <CharString index="36">
            hstem
            186 -9 callsubr
            370 65 vstem
            -96 callsubr
            return
          </CharString>
          <CharString index="37">
            -106 -45 36 -150 hhcurveto
            -148 -74 -112 -50 -4 hvcurveto
            28 hlineto
            return
          </CharString>
          <CharString index="38">
            vhcurveto
            3 -3 rlineto
            -19 return
          </CharString>
          <CharString index="39">
            rmoveto
            -75 -83 rlineto
            -62 hlineto
            75 83 rlineto
            endchar
          </CharString>
          <CharString index="40">
            -107 10 callgsubr
            20 callsubr
            hintmask 11011100
            -91 callgsubr
            return
          </CharString>
          <CharString index="41">
            114 92 57 69 69 -92 56 -114 -36 -33 -7 -10 -30 hvcurveto
            95 19 169 14 79 hhcurveto
            37 vlineto
            -255 -111 -117 -104 -84 71 -75 127 hvcurveto
            return
          </CharString>
          <CharString index="42">
            -62 callgsubr
            hlineto
            return
          </CharString>
          <CharString index="43">
            84 13 60 30 37 vvcurveto
            -140 -253 rmoveto
            22 25 6 28 24 vvcurveto
            23 -6 28 -22 25 45 callsubr
            40 -20 27 -30 -29 vvcurveto
            -30 -28 -30 -39 -20 vhcurveto
            -21 192 rmoveto
            -3 3 rlineto
            18 20 9 19 21 vvcurveto
            20 -7 21 -20 25 45 callsubr
            42 -19 22 -27 -25 vvcurveto
            -24 -21 -23 -43 -14 vhcurveto
            return
          </CharString>
          <CharString index="44">
            -252 154 -398 -398 -252 -154 return
          </CharString>
          <CharString index="45">
            rmoveto
            -273 250 rlineto
            -247 vlineto
            112 -104 -112 -103 rlineto
            -87 vlineto
            273 249 rlineto
            -235 64 rmoveto
            62 vlineto
            138 -127 -34 -31 rlineto
            return
          </CharString>
          <CharString index="46">
            rmoveto
            29 -102 147 vlineto
            31 25 25 29 vhcurveto
            47 31 -273 hlineto
            -224 -236 rlineto
            -27 200 -12 vlineto
            -41 -25 -15 -30 vhcurveto
            -46 -29 398 29 -47 hlineto
            -29 -25 15 41 hvcurveto
            12 vlineto
            -337 29 rmoveto
            50 59 47 51 50 59 rrcurveto
            0 -6 -32 -29 vvcurveto
            -108 vlineto
            40 203 rmoveto
            return
          </CharString>
          <CharString index="47">
            -6 callgsubr
            hstem
            -24 callgsubr
            vstem
            606 425 -72 callgsubr
          </CharString>
          <CharString index="48">
            rmoveto
            -104 -32 -115 -19 -172 -5 rrcurveto
            6 vlineto
            168 44 253 82 100 vvcurveto
            89 -167 17 -73 -106 -70 -25 -17 -37 vhcurveto
            26 -27 -154 27 vlineto
            69 13 80 73 83 hhcurveto
            16 57 -4 -78 -109 -203 -80 -92 -27 hvcurveto
            -41 496 132 -27 vlineto
            -161 214 rmoveto
            return
          </CharString>
          <CharString index="49">
            -36 12 -30 19 -21 -49 callgsubr
            -104 callgsubr
            456 hmoveto
            -36 12 -30 19 -21 -49 callgsubr
            -104 callgsubr
            endchar
          </CharString>
          <CharString index="50">
            hstem
            20 callsubr
            vstem
            -91 callgsubr
            return
          </CharString>
          <CharString index="51">
            668 rmoveto
            hintmask 11011010
            -73 callgsubr
            hintmask 11100110
            40 -299 -40 hlineto
            return
          </CharString>
          <CharString index="52">
            -22 rmoveto
            394 692 rlineto
            -52 hlineto
            -394 -692 rlineto
            return
          </CharString>
          <CharString index="53">
            -70 -50 -53 -40 -156 hhcurveto
            return
          </CharString>
          <CharString index="54">
            -23 callgsubr
            -294 -45 callgsubr
            -275 -88 34 callgsubr
          </CharString>
          <CharString index="55">
            -4 callgsubr
            -51 callgsubr
            return
          </CharString>
          <CharString index="56">
            -161 42 -114 101 118 vvcurveto
            129 114 111 161 45 vhcurveto
            1 -5 rlineto
            -110 -51 -95 -92 -137 vvcurveto
            return
          </CharString>
          <CharString index="57">
            -164 -122 -182 -5 -145 hhcurveto
            return
          </CharString>
          <CharString index="58">
            rmoveto
            60 -57 33 -99 -48 callsubr
            50 -126 39 -17 callsubr
            endchar
          </CharString>
          <CharString index="59">
            -100 -55 -33 -60 -61 119 -240 36 38 118 240 61 vhcurveto
            -202 57 rmoveto
            -14 -11 -6 -14 -12 vvcurveto
            1 -38 return
          </CharString>
          <CharString index="60">
            -60 vhcurveto
            -122 -43 851 43 return
          </CharString>
          <CharString index="61">
            3 callsubr
            hintmask 10111100
            -101 callgsubr
          </CharString>
          <CharString index="62">
            63 -61 52 -77 return
          </CharString>
          <CharString index="63">
            -116 -85 -130 -27 -110 hhcurveto
            return
          </CharString>
          <CharString index="64">
            -70 callgsubr
            52 25 rmoveto
            return
          </CharString>
          <CharString index="65">
            287 0 43 151 48 365 43 return
          </CharString>
          <CharString index="66">
            -1 -21 31 -21 317 66 288 -20 31 -20 38 -20 hstemhm
            20 -20 callgsubr
            -190 267 -187 110 37 -20 callgsubr
            -110 110 return
          </CharString>
          <CharString index="67">
            29 -21 541 -20 hstem
            353 299 -62 callsubr
            return
          </CharString>
          <CharString index="68">
            hstem
            -57 callgsubr
            vstem
            return
          </CharString>
          <CharString index="69">
            -472 -34 callgsubr
            return
          </CharString>
          <CharString index="70">
            23 callsubr
            2 callgsubr
            return
          </CharString>
          <CharString index="71">
            -103 -103 -109 -36 -55 hvcurveto
            311 139 rmoveto
            -57 -44 -60 -52 -18 vhcurveto
            -5 3 rlineto
            24 37 8 49 46 vvcurveto
            46 -8 49 -24 37 58 callgsubr
            52 -18 44 -60 -57 vvcurveto
            return
          </CharString>
          <CharString index="72">
            -190 -281 -4 -219 hvcurveto
            877 -379 rmoveto
            -64 99 -109 1 -296 76 rrcurveto
            return
          </CharString>
          <CharString index="73">
            17 callgsubr
            -50 callgsubr
            return
          </CharString>
          <CharString index="74">
            -92 callgsubr
            endchar
          </CharString>
          <CharString index="75">
            -221 647 -7 -93 vvcurveto
            -33 -74 -6 -64 -219 -211 140 81 -35 vhcurveto
            -45 return
          </CharString>
          <CharString index="76">
            -11 callgsubr
            hvcurveto
            -32 callgsubr
            hlineto
            return
          </CharString>
          <CharString index="77">
            -55 -22 -44 -26 -26 -22 44 55 vhcurveto
            207 hmoveto
            72 -71 60 -88 -86 -71 -60 -72 return
          </CharString>
          <CharString index="78">
            rmoveto
            65 -519 hlineto
            -4 -61 0 122 hvcurveto
            return
          </CharString>
          <CharString index="79">
            -336 -214 -135 -165 return
          </CharString>
          <CharString index="80">
            497 rmoveto
            59 49 51 60 vhcurveto
            return
          </CharString>
          <CharString index="81">
            304 245 135 167 return
          </CharString>
          <CharString index="82">
            vhcurveto
            -2 -7 rlineto
            -188 return
          </CharString>
          <CharString index="83">
            -5 callsubr
            274 -31 callgsubr
            return
          </CharString>
          <CharString index="84">
            43 472 43 return
          </CharString>
          <CharString index="85">
            rmoveto
            -135 -65 -82 -101 -57 vhcurveto
            -2 3 rlineto
            56 76 31 93 102 vvcurveto
            102 -31 93 -56 76 vhcurveto
            2 3 rlineto
            101 -57 65 -82 -135 vvcurveto
            endchar
          </CharString>
          <CharString index="86">
            250 -16 callgsubr
            return
          </CharString>
          <CharString index="87">
            rmoveto
            -66 564 66 hlineto
            return
          </CharString>
          <CharString index="88">
            -51 1 callsubr
            return
          </CharString>
          <CharString index="89">
            -540 -80 540 hlineto
            endchar
          </CharString>
          <CharString index="90">
            -76 -24 -39 rcurveline
            -40 70 -63 157 42 vvcurveto
            25 18 19 37 9 vhcurveto
            return
          </CharString>
          <CharString index="91">
            43 hstem
            -2 callsubr
            return
          </CharString>
          <CharString index="92">
            110 44 -44 156 hhcurveto
            return
          </CharString>
          <CharString index="93">
            29 -129 -230 34 -139 hhcurveto
            -35 callsubr
            return
          </CharString>
          <CharString index="94">
            vlineto
            -80 -48 -28 27 callgsubr
            1163 288 -34 hlineto
            -203 -143 -159 -42 -99 hhcurveto
            -86 -23 49 59 hvcurveto
            return
          </CharString>
          <CharString index="95">
            29 -111 -139 31 -185 hhcurveto
            -148 -242 -3 -196 return
          </CharString>
          <CharString index="96">
            78 0 43 123 41 308 43 return
          </CharString>
          <CharString index="97">
            -188 rmoveto
            -19 51 87 -16 95 hhcurveto
            108 125 11 79 return
          </CharString>
          <CharString index="98">
            68 13 callsubr
            return
          </CharString>
          <CharString index="99">
            96 447 rmoveto
            -261 762 -1 -115 vvcurveto
            -43 -90 -7 -77 -258 -250 165 96 -42 vhcurveto
            -47 hlineto
            return
          </CharString>
          <CharString index="100">
            -66 -41 -22 -49 vhcurveto
            -106 -43 return
          </CharString>
          <CharString index="101">
            235 -22 41 610 41 return
          </CharString>
          <CharString index="102">
            -35 -103 -123 -253 hhcurveto
            -146 -49 58 133 hvcurveto
            return
          </CharString>
          <CharString index="103">
            40 -41 -49 hvcurveto
            -293 57 callsubr
            return
          </CharString>
          <CharString index="104">
            89 -69 69 -25 61 72 callsubr
            return
          </CharString>
          <CharString index="105">
            267 63 50 225 return
          </CharString>
          <CharString index="106">
            -41 callgsubr
            hstem
            return
          </CharString>
          <CharString index="107">
            22 9 24 15 29 hhcurveto
            return
          </CharString>
          <CharString index="108">
            -59 hvcurveto
            -346 vlineto
            return
          </CharString>
          <CharString index="109">
            62 51 224 return
          </CharString>
          <CharString index="110">
            127 -77 callsubr
            return
          </CharString>
          <CharString index="111">
            vhcurveto
            -120 -43 return
          </CharString>
          <CharString index="112">
            rmoveto
            -402 181 402 181 -34 71 -478 -222 rlineto
            -60 vlineto
            478 -222 rlineto
            return
          </CharString>
          <CharString index="113">
            rmoveto
            402 -181 -402 -181 34 -71 478 222 rlineto
            60 vlineto
            -478 222 rlineto
            return
          </CharString>
          <CharString index="114">
            165 31 callgsubr
            309 61 return
          </CharString>
          <CharString index="115">
            rmoveto
            77 -102 62 -126 -127 -103 -62 -77 -77 103 -62 127 126 102 62 77 vhcurveto
            return
          </CharString>
          <CharString index="116">
            -133 vhcurveto
            -43 695 43 vlineto
            -133 -182 return
          </CharString>
          <CharString index="117">
            rmoveto
            -125 95 -84 110 -47 vhcurveto
            -1 -5 rlineto
            return
          </CharString>
          <CharString index="118">
            472 50 -472 vlineto
            return
          </CharString>
          <CharString index="119">
            -106 hlineto
            -49 -41 return
          </CharString>
          <CharString index="120">
            65 258 return
          </CharString>
          <CharString index="121">
            402 -55 callsubr
            214 519 rmoveto
            return
          </CharString>
          <CharString index="122">
            191 -86 callsubr
            return
          </CharString>
          <CharString index="123">
            67 34 37 27 20 vvcurveto
            16 -15 4 -9 vhcurveto
            return
          </CharString>
          <CharString index="124">
            18 callgsubr
            -294 vlineto
            return
          </CharString>
          <CharString index="125">
            -49 53 callgsubr
            return
          </CharString>
          <CharString index="126">
            49 18 19 37 vhcurveto
            373 hlineto
            178 134 48 137 161 -205 return
          </CharString>
          <CharString index="127">
            304 67 13 callsubr
            return
          </CharString>
          <CharString index="128">
            301 -9 callsubr
            return
          </CharString>
          <CharString index="129">
            190 -110 110 return
          </CharString>
          <CharString index="130">
            43 -43 145 return
          </CharString>
          <CharString index="131">
            263 -20 hstemhm
            return
          </CharString>
          <CharString index="132">
            558 rmoveto
            return
          </CharString>
          <CharString index="133">
            44 -47 37 -58 -58 -47 -37 -44 -44 47 -36 58 58 47 36 44 vhcurveto
            return
          </CharString>
          <CharString index="134">
            48 41 42 49 vhcurveto
            return
          </CharString>
          <CharString index="135">
            -42 -48 hvcurveto
            return
          </CharString>
          <CharString index="136">
            -53 -44 -46 -54 vhcurveto
            -199 -83 203 hlineto
            52 42 -48 -51 hvcurveto
            return
          </CharString>
          <CharString index="137">
            -16 callsubr
            vstem
            return
          </CharString>
          <CharString index="138">
            62 51 225 return
          </CharString>
          <CharString index="139">
            24 callgsubr
            55 194 -16 callsubr
            return
          </CharString>
          <CharString index="140">
            -20 hstemhm
            95 57 -57 291 37 callsubr
            return
          </CharString>
          <CharString index="141">
            -745 -74 -21 810 -20 hstem
            150 65 vstem
            215 return
          </CharString>
          <CharString index="142">
            124 43 -1204 -43 106 vlineto
            18 callgsubr
            return
          </CharString>
          <CharString index="143">
            24 callgsubr
            56 193 43 return
          </CharString>
          <CharString index="144">
            356 269 -167 167 return
          </CharString>
          <CharString index="145">
            -43 729 51 callgsubr
            return
          </CharString>
          <CharString index="146">
            274 182 274 return
          </CharString>
          <CharString index="147">
            311 -21 380 -20 return
          </CharString>
          <CharString index="148">
            -43 105 hlineto
            return
          </CharString>
          <CharString index="149">
            11 callsubr
            endchar
          </CharString>
          <CharString index="150">
            -460 645 -21 36 -20 102 13 callgsubr
            return
          </CharString>
          <CharString index="151">
            40 callsubr
            hstemhm
            60 65 -65 404 return
          </CharString>
          <CharString index="152">
            vhcurveto
            3 3 rlineto
            return
          </CharString>
          <CharString index="153">
            vhcurveto
            3 -5 rlineto
            return
          </CharString>
          <CharString index="154">
            281 rmoveto
            return
          </CharString>
          <CharString index="155">
            hlineto
            -55 -205 rlineto
            80 52 callsubr
            return
          </CharString>
          <CharString index="156">
            80 230 -20 hstem
            330 80 vstem
            330 return
          </CharString>
          <CharString index="157">
            -38 callsubr
            endchar
          </CharString>
          <CharString index="158">
            41 callsubr
            49 40 return
          </CharString>
          <CharString index="159">
            hlineto
            55 205 rlineto
            return
          </CharString>
          <CharString index="160">
            -533 -44 106 vlineto
            49 41 -23 -66 hvcurveto
            return
          </CharString>
          <CharString index="161">
            46 callsubr
            -22 -23 -15 -32 -37 vvcurveto
            return
          </CharString>
          <CharString index="162">
            -11 callsubr
            -43 return
          </CharString>
          <CharString index="163">
            rmoveto
            -62 -22 42 60 hvcurveto
            return
          </CharString>
          <CharString index="164">
            62 callsubr
            -23 return
          </CharString>
          <CharString index="165">
            47 callgsubr
            hlineto
            return
          </CharString>
          <CharString index="166">
            314 -21 394 -20 hstem
            50 52 return
          </CharString>
          <CharString index="167">
            -20 hstem
            360 61 58 232 vstem
            return
          </CharString>
          <CharString index="168">
            rmoveto
            -810 -80 810 hlineto
            endchar
          </CharString>
          <CharString index="169">
            vlineto
            -66 -40 return
          </CharString>
          <CharString index="170">
            212 -29 return
          </CharString>
          <CharString index="171">
            -431 -5 -21 827 -20 hstemhm
            return
          </CharString>
          <CharString index="172">
            -528 -31 -21 722 -20 hstem
            return
          </CharString>
          <CharString index="173">
            41 1 -21 629 41 -20 -20 return
          </CharString>
          <CharString index="174">
            -34 -30 -24 -10 vhcurveto
            return
          </CharString>
          <CharString index="175">
            -80 -49 -28 -60 vhcurveto
            return
          </CharString>
          <CharString index="176">
            -8 23 21 vvcurveto
            35 return
          </CharString>
          <CharString index="177">
            146 -433 rlineto
            return
          </CharString>
          <CharString index="178">
            106 hlineto
            49 41 return
          </CharString>
          <CharString index="179">
            -1 -20 hstemhm
            return
          </CharString>
        <CharString name=".notdef">
          -345 endchar
        </CharString>
        <CharString name="A">
          -42 callsubr
          hstem
          -107 callsubr
          endchar
        </CharString>
        <CharString name="AE">
          723 -16 callgsubr
          hstem
          775 67 0 66 0 256 vstem
          234 -9 callgsubr
          79 vlineto
          -90 callgsubr
          6 30 23 29 hvcurveto
          92 118 rlineto
          400 -161 hlineto
          -100 callsubr
          -15 callgsubr
          vhcurveto
          63 callgsubr
          hlineto
          -1087 -43 rmoveto
          81 28 -41 -59 hvcurveto
          -135 -354 vlineto
          183 235 rlineto
          304 -564 67 callgsubr
        </CharString>
        <CharString name="Aacute">
          -81 callsubr
          -300 691 -77 callsubr
          hintmask 11011000
          -101 callgsubr
        </CharString>
        <CharString name="Acircumflex">
          -42 callsubr
          66 146 hstem
          -107 callsubr
          -643 819 -75 callgsubr
        </CharString>
        <CharString name="Adieresis">
          -42 callsubr
          263 -20 hstem
          213 39 callsubr
          vstem
          -107 callsubr
          -62 755 -86 callsubr
          -105 callgsubr
        </CharString>
        <CharString name="Agrave">
          -81 callsubr
          -554 691 -65 callsubr
          hintmask 11011000
          -96 callgsubr
        </CharString>
        <CharString name="Aring">
          -42 callsubr
          -43 92 -31 -20 282 -20 hstemhm
          421 71 callgsubr
          hintmask 11100111
          -107 callsubr
          -475 755 -67 callgsubr
        </CharString>
        <CharString name="Atilde">
          -42 callsubr
          -43 132 16 callgsubr
          62 callgsubr
          -107 callsubr
          -179 742 -78 callsubr
        </CharString>
        <CharString name="B">
          371 -41 callgsubr
          hstemhm
          21 callsubr
          288 81 -43 84 30 230 -190 190 -190 249 hintmask 1111101000000000
          1362 505 rmoveto
          129 -148 16 -179 vhcurveto
          -962 23 callgsubr
          -19 callsubr
          -79 -48 -29 27 callgsubr
          1041 hlineto
          hintmask 1111100010000000
          116 191 32 143 123 -148 39 -45 8 hvcurveto
          5 vlineto
          hintmask 1111011000000000
          36 13 98 44 98 vvcurveto
          -586 -462 56 callsubr
          179 164 vlineto
          92 70 -41 -99 -108 -84 -33 -67 hvcurveto
          -175 465 rmoveto
          59 44 39 74 vhcurveto
          hintmask 1111101000000000
          109 61 -44 -78 -86 -72 -36 -59 hvcurveto
          -157 hlineto
          -258 -319 -53 callgsubr
          587 -239 rmoveto
          26 32 14 34 44 vvcurveto
          45 -15 34 -25 31 45 callsubr
          62 -18 46 -41 -54 vvcurveto
          -54 -47 -40 -61 -20 vhcurveto
          17 -313 rmoveto
          hintmask 1111010100000000
          37 32 24 44 57 vvcurveto
          59 -25 44 -37 32 vhcurveto
          3 4 rlineto
          75 -24 54 -50 -65 vvcurveto
          -63 -54 -50 -75 -24 vhcurveto
          endchar
        </CharString>
        <CharString name="C">
          -13 -22 42 -42 165 487 59 callgsubr
          hintmask 01101100
          980 42 rmoveto
          16 callsubr
          hintmask 10011100
          -24 callsubr
          hintmask 10101100
          32 callgsubr
          -248 300 -102 344 151 96 31 33 67 hvcurveto
          -828 278 -35 callgsubr
          endchar
        </CharString>
        <CharString name="Ccedilla">
          -13 -223 48 153 42 610 59 callgsubr
          97 210 -100 100 hintmask 11011110
          315 -10 callsubr
          49 -42 37 -64 25 hvcurveto
          146 2 93 29 66 33 rrcurveto
          16 callsubr
          -24 callsubr
          hintmask 11101110
          32 callgsubr
          -206 206 -105 266 -30 20 callgsubr
          -163 399 -35 callgsubr
          437 -344 rmoveto
          hintmask 11101101
          -46 callgsubr
        </CharString>
        <CharString name="D">
          359 -1 callsubr
          299 67 65 257 342 89 81 246 vstem
          70 -9 callgsubr
          120 vlineto
          60 49 -50 -59 hvcurveto
          -346 -8 callgsubr
          -402 -607 -53 callgsubr
          341 -564 56 callsubr
          363 15 callgsubr
          337 281 -22 callsubr
        </CharString>
        <CharString name="Delta">
          70 0 43 583 175 hstem
          416 801 rmoveto
          -366 -758 rlineto
          -43 1080 43 vlineto
          -420 758 rlineto
          -589 -758 rmoveto
          283 582 322 -582 rlineto
          68 hmoveto
          -323 583 rlineto
          82 hlineto
          323 -583 rlineto
          endchar
        </CharString>
        <CharString name="E">
          -21 callsubr
          hstem
          302 67 66 256 vstem
          -104 callsubr
          endchar
        </CharString>
        <CharString name="Eacute">
          -21 callsubr
          -45 147 25 callgsubr
          302 67 66 256 hintmask 11101110
          -104 callsubr
          372 3 callsubr
          hintmask 11011110
          -101 callgsubr
        </CharString>
        <CharString name="Ecircumflex">
          -21 callsubr
          66 146 hstem
          302 67 66 256 vstem
          -104 callsubr
          169 255 -75 callgsubr
        </CharString>
        <CharString name="Edieresis">
          -21 callsubr
          24 callsubr
          302 67 16 274 -224 256 150 274 hintmask 11111011
          -104 callsubr
          680 15 callsubr
          hintmask 11111101
          -105 callgsubr
        </CharString>
        <CharString name="Egrave">
          -21 callsubr
          -45 147 25 callgsubr
          302 67 66 256 hintmask 11101110
          -104 callsubr
          118 44 callgsubr
          hintmask 11011110
          -96 callgsubr
        </CharString>
        <CharString name="Eth">
          359 0 43 242 80 241 44 hstem
          299 67 65 257 342 89 81 246 vstem
          70 -9 callgsubr
          120 vlineto
          60 49 -50 -59 hvcurveto
          -133 -151 -80 151 -133 -8 callgsubr
          -61 -607 56 callsubr
          140 188 80 -188 143 15 callgsubr
          -432 hmoveto
          -65 564 65 hlineto
          769 -283 -22 callsubr
        </CharString>
        <CharString name="Euro">
          63 -22 42 -42 165 97 50 78 50 208 44 hstemhm
          157 71 0 322 hintmask 01111010
          874 240 rmoveto
          50 -324 78 324 50 -324 63 -31 callgsubr
          36 callgsubr
          -243 -280 -69 -183 -69 hvcurveto
          -114 -50 101 hlineto
          -2 -13 -1 -13 -14 vvcurveto
          -13 1 -13 1 -12 vhcurveto
          -100 -50 112 hlineto
          -185 63 267 -77 300 hhcurveto
          151 96 31 33 67 hvcurveto
          16 callsubr
          hintmask 10111010
          -5 callsubr
          29 vlineto
          -322 80 10 callsubr
          hintmask 10111100
          -51 callsubr
          endchar
        </CharString>
        <CharString name="F">
          125 0 43 270 59 234 44 hstem
          21 callsubr
          vstem
          910 43 rmoveto
          -100 hlineto
          -85 -33 11 93 hvcurveto
          76 vlineto
          43 19 47 68 86 63 -23 -77 33 vhcurveto
          37 250 -37 hlineto
          -49 -33 -63 -42 -86 hhcurveto
          -78 -9 62 40 hvcurveto
          34 vlineto
          57 41 41 71 246 68 -78 -65 62 vhcurveto
          28 187 -1135 23 callgsubr
          -50 -60 hvcurveto
          -345 vlineto
          -80 -48 -29 27 callgsubr
          837 hlineto
          -476 43 8 callgsubr
        </CharString>
        <CharString name="G">
          262 -23 44 0 -21 348 43 238 45 -24 -20 hstemhm
          22 63 74 315 358 67 65 249 hintmask 1011011110000000
          603 391 rmoveto
          -43 115 vlineto
          56 58 -43 -58 hvcurveto
          -72 vlineto
          -131 -101 -23 -62 -161 -34 91 91 vhcurveto
          279 vlineto
          106 93 41 117 175 161 -100 -90 59 vhcurveto
          48 hlineto
          hintmask 1010111110000000
          211 -48 -43 vlineto
          hintmask 1011011110000000
          43 -144 -165 24 -140 hhcurveto
          -323 -285 -76 -270 -254 283 -97 361 hvcurveto
          246 108 86 74 hhcurveto
          hintmask 0111011110000000
          47 24 -27 -36 hvcurveto
          48 348 190 43 hlineto
          -1103 -324 rmoveto
          -125 41 -90 105 122 vvcurveto
          122 90 103 124 41 vhcurveto
          2 -5 rlineto
          -83 -48 -59 -99 -114 vvcurveto
          -115 59 -100 83 -49 vhcurveto
          663 144 rmoveto
          -79 -27 -65 -23 -10 -5 14 64 vhcurveto
          197 65 vlineto
          endchar
        </CharString>
        <CharString name="H">
          601 0 43 275 53 236 43 hstem
          21 callsubr
          320 69 65 256 vstem
          1402 497 rmoveto
          59 50 51 59 vhcurveto
          121 43 -755 -43 hlineto
          110 25 -42 -57 hvcurveto
          -137 -320 137 vlineto
          57 25 42 110 vhcurveto
          43 -754 47 callgsubr
          vlineto
          60 48 -19 callsubr
          -80 -48 -28 27 callgsubr
          754 43 hlineto
          -132 -3 38 55 hvcurveto
          138 vlineto
          21 10 23 32 vhcurveto
          236 hlineto
          33 9 -23 -21 hvcurveto
          -135 vlineto
          -56 -3 -40 -132 vhcurveto
          -43 755 43 -121 vlineto
          -59 -50 28 80 hvcurveto
          -968 -27 callgsubr
          712 -564 8 callgsubr
        </CharString>
        <CharString name="I">
          -107 0 43 564 43 -57 callsubr
          endchar
        </CharString>
        <CharString name="Iacute">
          -67 callsubr
          192 -46 callsubr
        </CharString>
        <CharString name="Icircumflex">
          -107 -41 callgsubr
          66 146 -57 callsubr
          -96 255 -75 callgsubr
        </CharString>
        <CharString name="Idieresis">
          -107 -41 callgsubr
          24 callsubr
          136 274 -106 67 13 callsubr
          -102 274 hintmask 11101100
          -91 callgsubr
          hintmask 11110010
          430 15 callsubr
          -105 callgsubr
        </CharString>
        <CharString name="Igrave">
          -67 callsubr
          -62 44 callgsubr
          hintmask 10111100
          -96 callgsubr
        </CharString>
        <CharString name="J">
          -22 -22 43 0 -21 607 43 hstemhm
          477 67 64 259 hintmask 01111000
          608 208 rmoveto
          -99 -37 -34 -27 -11 vhcurveto
          543 64 vlineto
          -361 43 rmoveto
          -43 121 vlineto
          69 40 -51 -59 hvcurveto
          -368 vlineto
          -80 -50 -28 -59 -227 -106 241 0 vhcurveto
          -49 -262 49 51 hlineto
          hintmask 10111000
          -18 46 153 -55 200 37 callgsubr
          301 vlineto
          59 39 51 70 vhcurveto
          99 43 hlineto
          endchar
        </CharString>
        <CharString name="K">
          545 0 43 253 49 262 43 hstem
          301 68 0 65 0 258 vstem
          873 hmoveto
          43 -72 vlineto
          -60 -49 29 79 hvcurveto
          101 vlineto
          21 9 23 33 vhcurveto
          79 hlineto
          264 -296 rlineto
          556 43 -134 hlineto
          -298 354 rlineto
          -11 13 -4 12 11 vvcurveto
          20 15 16 15 9 vhcurveto
          14 24 203 115 83 hhcurveto
          107 43 -592 -43 hlineto
          102 38 -8 -36 -36 -36 -29 -84 -38 hvcurveto
          -197 -89 rlineto
          -16 -35 -23 -10 -36 hhcurveto
          -20 hlineto
          -50 -8 31 27 hvcurveto
          106 vlineto
          57 42 41 70 vhcurveto
          111 43 -842 23 callgsubr
          -50 -59 hvcurveto
          -347 vlineto
          -79 -48 -29 27 callgsubr
          hlineto
          361 43 -53 callgsubr
          779 -564 rmoveto
          -87 hlineto
          -251 281 rlineto
          87 hlineto
          endchar
        </CharString>
        <CharString name="L">
          -30 callgsubr
          -346 -13 callsubr
          -258 -108 8 callgsubr
        </CharString>
        <CharString name="Lslash">
          -30 callgsubr
          -200 50 callgsubr
          -66 -13 callsubr
          192 vlineto
          184 60 rlineto
          80 vlineto
          -184 -60 rlineto
          -258 -380 8 callgsubr
        </CharString>
        <CharString name="M">
          748 -1 callsubr
          350 65 744 67 13 callsubr
          vstem
          1226 607 rmoveto
          65 -564 -65 hlineto
          599 564 rmoveto
          43 -681 vlineto
          -168 -261 -307 261 rlineto
          -647 -43 hlineto
          165 38 callgsubr
          -172 -182 -62 9 callsubr
          62 172 hvcurveto
          134 vlineto
          386 -326 rlineto
          52 hlineto
          306 474 rlineto
          -408 vlineto
          -80 -49 -28 27 callgsubr
          895 43 -167 -1 callgsubr
          375 vlineto
          59 49 22 60 vhcurveto
          -822 -438 rmoveto
          -25 hlineto
          -515 436 rlineto
          100 hlineto
          440 -373 rlineto
          endchar
        </CharString>
        <CharString name="N">
          434 -21 -21 42 43 564 43 hstem
          350 65 822 64 vstem
          -76 callgsubr
          endchar
        </CharString>
        <CharString name="Ntilde">
          451 -21 -21 42 43 564 43 55 84 -50 -20 35 -3 callsubr
          350 65 822 64 hintmask 1110110011100000
          -76 callgsubr
          -183 678 rmoveto
          12 callgsubr
          hintmask 1111000101100000
          -79 callsubr
          hintmask 1110101011100000
          -15 callsubr
          hintmask 1111000011100000
          -37 callgsubr
          hintmask 1110110011100000
          1 callgsubr
          hintmask 1111000101100000
          -70 callsubr
          hintmask 1110110011100000
          0 callsubr
          hintmask 1111000011100000
          -71 callgsubr
        </CharString>
        <CharString name="O">
          -6 callsubr
          -85 callgsubr
          endchar
        </CharString>
        <CharString name="OE">
          828 0 43 269 60 235 43 hstem
          22 54 73 316 415 67 66 256 vstem
          672 43 rmoveto
          -130 -77 96 186 185 44 97 163 hvcurveto
          99 hlineto
          61 48 -19 callsubr
          -80 -48 -28 -61 vhcurveto
          1087 -43 rmoveto
          63 callsubr
          vlineto
          -97 callgsubr
          -15 callgsubr
          vhcurveto
          63 callgsubr
          -1186 hlineto
          -398 -252 -145 -179 -180 291 -146 359 hvcurveto
          -288 60 rmoveto
          -184 56 -124 86 -14 callgsubr
          126 87 -68 callgsubr
          -86 -120 vvcurveto
          -120 95 -85 141 -56 vhcurveto
          628 -21 67 callgsubr
        </CharString>
        <CharString name="Oacute">
          -87 callgsubr
          -236 409 -77 callsubr
          hintmask 10111111
          -101 callgsubr
        </CharString>
        <CharString name="Ocircumflex">
          -6 callsubr
          46 146 -85 callgsubr
          -524 537 -75 callgsubr
        </CharString>
        <CharString name="Odieresis">
          -6 callsubr
          243 -20 hstemhm
          22 54 -54 322 -195 316 -158 39 callsubr
          -158 81 75 287 hintmask 1111010011000000
          -107 callgsubr
          hintmask 1111001100000000
          2 473 -86 callsubr
          -97 callsubr
          62 callgsubr
          -104 callgsubr
          456 hmoveto
          -36 12 -30 19 -21 -49 callgsubr
          -104 callgsubr
          endchar
        </CharString>
        <CharString name="Ograve">
          -87 callgsubr
          -490 409 -65 callsubr
          hintmask 10111111
          -96 callgsubr
        </CharString>
        <CharString name="Omega">
          235 0 43 717 41 -39 callsubr
          384 171 -106 callgsubr
          -1013 hmoveto
          -162 191 -152 330 -29 vhcurveto
          -49 -17 -21 -51 vhcurveto
          -47 hlineto
          -110 -130 27 116 -85 hvcurveto
          -29 -186 531 163 hlineto
          -110 25 -30 175 92 vvcurveto
          -10 callgsubr
          64 callgsubr
          -105 -200 -92 -30 -175 -110 -25 vhcurveto
          -163 531 186 -29 vlineto
          -44 callsubr
          -47 hlineto
          -51 -17 21 49 hvcurveto
          330 29 191 152 162 vvcurveto
          -69 callgsubr
          vhcurveto
          endchar
        </CharString>
        <CharString name="Oslash">
          235 -68 -21 67 41 610 41 71 -20 -39 callsubr
          501 -89 rmoveto
          35 75 rlineto
          -5 44 45 -3 47 hhcurveto
          -26 callgsubr
          159 -176 134 -290 40 hvcurveto
          39 83 rlineto
          -52 hlineto
          -37 -78 rlineto
          4 -43 -44 3 -47 hhcurveto
          -398 -252 -154 -191 -158 196 -133 269 -42 hvcurveto
          -38 -81 rlineto
          223 718 rmoveto
          44 35 -8 -15 28 hvcurveto
          -249 -524 rlineto
          -42 51 -23 81 110 vvcurveto
          -10 callgsubr
          vhcurveto
          207 -305 rmoveto
          -201 -76 -104 -131 -41 -35 10 20 -30 vhcurveto
          251 528 rlineto
          47 -50 15 -85 -118 vvcurveto
          -495 -284 -66 callgsubr
        </CharString>
        <CharString name="Otilde">
          -6 callsubr
          -41 110 16 callgsubr
          -57 callgsubr
          hintmask 1101001011110000
          -107 callgsubr
          -115 460 rmoveto
          hintmask 1010100111110000
          12 callgsubr
          hintmask 1101001011110000
          -79 callsubr
          hintmask 1100010111110000
          -15 callsubr
          hintmask 1101000111110000
          -37 callgsubr
          hintmask 1100100111110000
          1 callgsubr
          hintmask 1101001011110000
          -70 callsubr
          hintmask 1100100111110000
          0 callsubr
          hintmask 1101000111110000
          -71 callgsubr
        </CharString>
        <CharString name="P">
          337 0 43 241 45 278 66 callgsubr
          316 78 69 277 vstem
          73 -9 callgsubr
          121 vlineto
          61 48 -19 callsubr
          -79 -48 -29 -61 vhcurveto
          -121 -43 851 43 -122 hlineto
          -60 -48 29 79 hvcurveto
          65 vlineto
          19 callsubr
          20 -147 hvcurveto
          -646 -607 -20 callsubr
          309 -278 rmoveto
          -28 -22 23 27 hvcurveto
          177 48 callgsubr
          -36 -36 callsubr
          endchar
        </CharString>
        <CharString name="Q">
          235 -207 43 143 41 609 42 -39 callsubr
          1322 325 rmoveto
          192 -63 callsubr
          -192 -186 273 -150 343 -10 vhcurveto
          -4 vlineto
          -86 -31 -95 -45 -30 -63 rrcurveto
          -43 489 43 -157 vlineto
          -25 -13 25 33 28 9 32 21 27 hvcurveto
          321 21 250 146 177 vvcurveto
          -857 hmoveto
          200 44 104 163 64 callgsubr
          -104 -65 callgsubr
          vhcurveto
          192 -367 rmoveto
          -20 -17 -79 -69 -36 vvcurveto
          -61 hlineto
          38 110 69 48 18 vhcurveto
          -271 79 -66 callgsubr
        </CharString>
        <CharString name="R">
          475 0 43 253 53 258 66 callgsubr
          332 93 69 311 vstem
          1453 43 rmoveto
          -134 172 -97 15 -74 37 -28 24 rlinecurve
          5 vlineto
          171 4 208 21 148 vvcurveto
          162 -204 19 -148 vhcurveto
          -1074 -43 121 hlineto
          61 48 -50 -60 hvcurveto
          -345 vlineto
          -80 -48 -29 -61 vhcurveto
          -121 -43 804 43 -75 hlineto
          -60 -48 29 80 hvcurveto
          75 vlineto
          48 1 23 28 23 32 -42 0 vhcurveto
          200 -256 rlineto
          593 43 hlineto
          -876 513 rmoveto
          28 22 23 28 vhcurveto
          117 hlineto
          55 109 -36 -103 -88 -86 -31 -84 -82 -79 29 35 hvcurveto
          -259 -370 -20 callsubr
          588 -564 rmoveto
          -198 255 rlineto
          83 hlineto
          198 -255 rlineto
          -17 296 rmoveto
          23 36 6 46 47 vvcurveto
          50 -5 43 -25 37 45 callsubr
          56 -16 40 -53 -64 vvcurveto
          -63 -40 -54 -55 -15 vhcurveto
          endchar
        </CharString>
        <CharString name="S">
          151 -21 41 1 -21 629 41 -20 33 callgsubr
          hintmask 10100110
          -8 callsubr
          hintmask 01101010
          -281 47 vlineto
          28 58 rlineto
          hintmask 10100101
          -33 callgsubr
          hintmask 10011010
          211 -47 vlineto
          -18 -43 rlineto
          hintmask 10100110
          -14 callsubr
          hintmask 10101001
          -63 callgsubr
          endchar
        </CharString>
        <CharString name="Scaron">
          151 -21 66 callsubr
          86 146 -121 33 callgsubr
          hintmask 1010100110000000
          -8 callsubr
          hintmask 0110101010000000
          -281 47 vlineto
          28 58 rlineto
          hintmask 1010100101000000
          -33 callgsubr
          hintmask 1001101010000000
          211 -47 vlineto
          -18 -43 rlineto
          hintmask 1010100110000000
          -14 callsubr
          hintmask 1010101001000000
          -63 callgsubr
          -199 647 -70 callgsubr
          hintmask 1010010110000000
          52 25 rmoveto
          -13 callgsubr
        </CharString>
        <CharString name="T">
          -6 0 43 563 44 hstemhm
          66 358 -68 -9 callsubr
          hintmask 11101000
          785 606 rmoveto
          61 171 -241 0 hvcurveto
          38 285 -989 -285 20 hlineto
          0 172 241 61 vhcurveto
          hintmask 11011000
          27 10 -19 -30 hvcurveto
          -405 vlineto
          -80 -48 -29 -60 vhcurveto
          -121 -43 850 43 -121 hlineto
          -60 -49 29 80 hvcurveto
          405 vlineto
          30 11 19 27 vhcurveto
          -296 -563 8 callgsubr
        </CharString>
        <CharString name="Thorn">
          337 0 43 99 45 277 45 98 43 hstem
          20 callsubr
          315 78 69 277 vstem
          744 187 rmoveto
          -28 -22 23 27 hvcurveto
          176 48 callgsubr
          -35 -36 callsubr
          -463 47 callsubr
          231 -80 callgsubr
          -231 31 hlineto
          19 callsubr
          21 -147 hvcurveto
          -333 hlineto
          -37 -18 19 49 hvcurveto
          -257 -534 8 callgsubr
        </CharString>
        <CharString name="U">
          57 callgsubr
          -71 callsubr
          -958 -43 -29 callsubr
          endchar
        </CharString>
        <CharString name="Uacute">
          -74 callsubr
          -437 84 -77 callsubr
          hintmask 10111110
          -54 callsubr
          -73 callsubr
          -521 -127 -29 callsubr
          317 549 rmoveto
          -90 callsubr
          endchar
        </CharString>
        <CharString name="Ucircumflex">
          57 callgsubr
          66 146 -71 callsubr
          -720 212 -91 callsubr
          -562 -255 -29 callsubr
          352 627 -68 callsubr
        </CharString>
        <CharString name="Udieresis">
          57 callgsubr
          24 callsubr
          186 68 45 278 -258 258 178 274 -82 65 hintmask 11111001
          -96 callsubr
          -639 148 -86 callsubr
          hintmask 11110110
          456 hmoveto
          -101 callsubr
          -775 -191 -29 callsubr
          123 588 rmoveto
          -58 callsubr
        </CharString>
        <CharString name="Ugrave">
          -74 callsubr
          -721 84 -65 callsubr
          hintmask 10111110
          36 vlineto
          -84 callgsubr
          -237 -127 -29 callsubr
          327 545 -86 callgsubr
        </CharString>
        <CharString name="V">
          149 -2 -21 630 43 hstem
          1273 650 rmoveto
          -518 -43 50 hlineto
          105 71 -66 -67 -25 -9 -25 -21 -22 hvcurveto
          -130 -142 -12 callgsubr
          568 630 rlineto
          51 hlineto
          -1052 9 callgsubr
          endchar
        </CharString>
        <CharString name="W">
          918 -2 -21 630 43 hstem
          1459 607 rmoveto
          43 -704 -43 67 vlineto
          156 -174 -157 -173 -12 callgsubr
          367 406 366 -406 rlineto
          36 hlineto
          569 630 rlineto
          49 43 -517 -43 49 hlineto
          106 71 -65 -68 -25 -9 -25 -21 -22 hvcurveto
          -131 -142 -185 -5 callgsubr
          -442 9 callgsubr
          -689 9 callgsubr
          endchar
        </CharString>
        <CharString name="X">
          263 -41 callgsubr
          72 callsubr
          hintmask 11000000
          1282 43 rmoveto
          -61 -76 28 80 -78 hvcurveto
          -218 225 230 149 rlineto
          23 36 95 59 84 hhcurveto
          33 hlineto
          hintmask 10100000
          42 -486 vlineto
          hintmask 11000000
          -42 19 vlineto
          33 27 -24 -37 -28 -22 -35 -65 -44 hvcurveto
          -28 -19 -75 77 rlineto
          -29 29 -14 26 20 vvcurveto
          20 15 15 31 vhcurveto
          18 43 -687 -43 61 hlineto
          60 97 -51 -59 58 hvcurveto
          195 -201 -272 -175 rlineto
          -23 -36 -96 -55 -84 hhcurveto
          -34 -43 563 43 -95 hlineto
          -33 -27 22 37 28 21 36 66 43 hvcurveto
          69 45 100 -103 rlineto
          35 -37 15 -25 -17 vvcurveto
          -20 -21 -9 -32 vhcurveto
          -40 -43 726 43 hlineto
          -495 hmoveto
          -552 564 rlineto
          77 hlineto
          552 -564 rlineto
          endchar
        </CharString>
        <CharString name="Y">
          199 -1 callsubr
          427 -9 callsubr
          vstem
          -89 callgsubr
          endchar
        </CharString>
        <CharString name="Yacute">
          199 10 callgsubr
          427 -9 callsubr
          hintmask 11011100
          -89 callgsubr
          573 -46 callsubr
        </CharString>
        <CharString name="Ydieresis">
          199 -41 callgsubr
          24 callsubr
          289 274 -136 -9 callsubr
          -73 274 hintmask 11101100
          -89 callgsubr
          hintmask 11110010
          764 15 callsubr
          -105 callgsubr
        </CharString>
        <CharString name="Z">
          63 -1 callsubr
          1119 607 rmoveto
          43 -1007 -226 29 vlineto
          65 65 121 118 242 hhcurveto
          57 hlineto
          -549 -564 rlineto
          -23 -43 1050 226 -29 hlineto
          -72 -60 -102 -111 -247 hhcurveto
          -118 hlineto
          550 564 rlineto
          -303 hmoveto
          -545 -564 rlineto
          -85 hlineto
          549 564 rlineto
          endchar
        </CharString>
        <CharString name="Zcaron">
          63 -41 callgsubr
          66 146 -121 -20 hstemhm
          hintmask 11100000
          1098 607 rmoveto
          -550 -564 rlineto
          118 hlineto
          247 102 111 72 60 hvcurveto
          29 -226 -1050 43 23 hlineto
          549 564 rlineto
          -57 hlineto
          -242 -121 -118 -65 -65 hvcurveto
          -29 226 1007 -43 hlineto
          -405 hmoveto
          -549 -564 rlineto
          85 hlineto
          545 564 rlineto
          9 109 -70 callgsubr
          hintmask 11010000
          52 25 rmoveto
          -13 callgsubr
        </CharString>
        <CharString name="a">
          -11 callsubr
          hstem
          -106 callsubr
          endchar
        </CharString>
        <CharString name="aacute">
          -78 callgsubr
          362 435 -77 callsubr
          hintmask 11011100
          -101 callgsubr
        </CharString>
        <CharString name="acircumflex">
          -11 callsubr
          66 -2 callgsubr
          hintmask 11110000
          -106 callsubr
          27 563 -91 callsubr
          hintmask 11101100
          -75 callsubr
        </CharString>
        <CharString name="acute">
          43 callsubr
          hintmask 01110000
          452 642 -77 callsubr
          -54 callsubr
          hintmask 10110000
          -99 callsubr
        </CharString>
        <CharString name="adieresis">
          -11 callsubr
          24 callsubr
          125 274 -196 196 182 274 -185 185 hintmask 11111001
          -106 callsubr
          581 499 rmoveto
          -45 callsubr
          vhcurveto
          hintmask 11111010
          -93 callsubr
          hvcurveto
          -456 hmoveto
          -101 callsubr
          hintmask 11110110
          -196 hmoveto
          -58 callsubr
        </CharString>
        <CharString name="ae">
          449 0 43 228 51 193 43 hstem
          642 31 callsubr
          vstem
          1072 -55 callgsubr
          -1282 -92 callsubr
          5 26 18 23 hvcurveto
          81 105 rlineto
          319 -140 hlineto
          -98 callsubr
          -519 hmoveto
          50 39 -41 -48 hvcurveto
          -109 -283 vlineto
          153 198 rlineto
          192 50 callsubr
        </CharString>
        <CharString name="agrave">
          -78 callgsubr
          64 435 -65 callsubr
          hintmask 11011100
          -96 callgsubr
        </CharString>
        <CharString name="ampersand">
          279 -23 66 -43 43 270 43 205 -20 54 -20 hstemhm
          0 50 48 264 hintmask 10111110
          960 356 rmoveto
          -43 52 vlineto
          32 13 -6 -17 -35 -40 -42 -62 -40 hvcurveto
          -66 59 -51 70 -34 63 rrcurveto
          162 32 43 59 40 vvcurveto
          55 -74 44 -115 -147 -223 -36 -58 -35 9 -41 15 -42 vhcurveto
          -357 -4 -117 -94 -110 vvcurveto
          -112 130 -86 282 117 110 22 32 100 vhcurveto
          hintmask 01111110
          -20 32 31 -11 28 hhcurveto
          559 43 -125 hlineto
          -105 -92 41 59 -76 hvcurveto
          124 71 85 71 32 28 rrcurveto
          157 43 hlineto
          -879 -323 rmoveto
          -88 -60 37 108 115 42 41 87 8 hvcurveto
          46 -104 80 -111 80 -66 rrcurveto
          -18 -64 -64 -10 -59 hhcurveto
          247 472 rmoveto
          21 7 35 79 78 17 -34 -29 -21 -12 -46 -141 -27 vhcurveto
          -19 41 -9 36 24 vvcurveto
          -200 12 rmoveto
          36 -147 108 -236 220 -98 rrcurveto
          -185 -163 213 247 -60 hvcurveto
          5 8 20 11 19 2 rrcurveto
          -431 -464 rmoveto
          -44 31 -32 46 46 vvcurveto
          46 31 45 45 32 vhcurveto
          4 -4 rlineto
          -25 -38 -7 -45 -36 vvcurveto
          -36 7 -46 25 -38 vhcurveto
          endchar
        </CharString>
        <CharString name="apple">
          -187 -114 101 -76 92 3 -21 30 -21 83 40 243 57 76 93 -77 77 -77 99 hstemhm
          100 115 -91 91 77 128 85 127 75 93 -93 105 hintmask 0100111001011100
          556 -89 rmoveto
          1 3 4 0 3 8 7 -1 8 hhcurveto
          26 2 19 10 17 hvcurveto
          15 8 21 1 13 9 13 9 5 22 12 12 10 10 16 1 9 11 11 13 -1 24 8 14 rrcurveto
          10 17 24 1 28 10 -2 11 11 vvcurveto
          25 22 3 3 20 vhcurveto
          hintmask 1001111001011010
          14 -11 15 15 13 11 12 14 22 -24 14 25 vvcurveto
          hintmask 1001111001011100
          8 1 8 9 vvcurveto
          28 -25 3 -11 18 vhcurveto
          -6 10 5 22 -6 10 -11 19 -26 4 -14 13 -12 12 2 18 -13 9 -14 10 -16 -3 -15 8 rrcurveto
          10 -19 -2 26 -27 -10 -10 -3 -8 hhcurveto
          hintmask 1001110010111100
          -24 -7 25 -26 -14 -17 -12 -14 -13 -18 12 -13 -22 -8 -23 -25 -9 -9 2 -8 hhcurveto
          -25 -1 -7 -28 -17 -9 -16 -8 -22 2 -13 -11 -11 -10 -4 -21 -10 -10 -11 -11 -21 0 -8 -13 -7 -11 3 -21 -7 -11 rrcurveto
          -10 -17 -25 -6 -25 -8 1 -9 -8 vvcurveto
          hintmask 0100111001011100
          -19 -25 -21 -21 -15 12 -10 -17 -15 -12 -15 -14 -21 25 -15 -19 -8 -3 -8 -9 vvcurveto
          -26 26 -11 8 -12 vhcurveto
          11 -18 -7 -11 11 -18 10 -16 16 3 13 -11 13 -11 -1 -24 18 -11 16 -10 7 9 23 -12 rrcurveto
          -7 13 12 -29 26 7 9 2 8 hhcurveto
          hintmask 1001111001011100
          24 11 -25 20 15 15 12 16 15 16 -10 15 hhcurveto
          hintmask 0100111001011100
          17 13 18 5 18 hvcurveto
          -26 92 rmoveto
          hintmask 1001111001011100
          -3 -13 -10 -13 -12 -11 -11 7 -11 hhcurveto
          hintmask 0010111001011100
          -12 -12 -9 -12 hhcurveto
          hintmask 0100111001011100
          2 -14 -7 16 -19 -5 -5 -1 -5 hhcurveto
          -19 -7 21 5 -11 hvcurveto
          -17 9 -5 -8 -11 8 -13 8 1 18 -10 8 -9 8 -12 -2 -7 11 -8 13 5 9 -8 13 rrcurveto
          -5 9 -20 7 19 5 2 6 5 15 -17 11 15 11 8 11 11 12 -8 7 11 16 17 14 16 5 -1 6 5 vvcurveto
          19 19 4 7 13 vhcurveto
          5 8 -2 15 5 8 7 9 14 0 8 8 8 8 2 15 9 7 9 8 16 -2 11 6 rrcurveto
          6 13 4 21 19 6 5 -1 6 hhcurveto
          hintmask 1001110101011100
          19 7 17 16 10 12 -9 10 10 12 9 11 19 3 -18 19 hhcurveto
          hintmask 0100111001011100
          6 7 2 7 hhcurveto
          20 1 -19 -7 13 hvcurveto
          12 -7 11 4 10 -8 10 -7 -2 -13 9 -8 10 -10 19 -3 8 -13 4 -8 -3 -15 4 -8 rrcurveto
          8 -14 18 -1 -21 -6 -1 -6 -5 -18 18 -11 -16 -9 -8 -10 -9 -11 8 -11 -10 vvcurveto
          -3 -14 -15 -3 -19 -6 1 -7 -7 vvcurveto
          -24 -16 3 -8 -14 vhcurveto
          -6 -11 0 -17 -7 -10 -7 -8 -12 0 -7 -8 -8 -8 -4 -15 -10 -7 -9 -7 -16 -1 -10 -6 rrcurveto
          -5 -12 -1 -16 -20 -5 -5 1 -5 hhcurveto
          -3 -3 0 -1 -3 hvcurveto
          -68 414 rmoveto
          -94 -76 -76 -94 -94 76 -76 94 94 76 76 94 94 -76 76 -94 hvcurveto
          43 -125 rmoveto
          -175 -85 175 -54 68 191 -68 vlineto
          endchar
        </CharString>
        <CharString name="approxequal">
          161 81 -28 80 88 81 -31 80 hstemhm
          hintmask 01100000
          640 268 rmoveto
          19 -38 -38 7 -38 hhcurveto
          hintmask 10100000
          -104 -104 -52 -104 hhcurveto
          -38 -38 7 19 -38 hvcurveto
          -80 vlineto
          -20 38 38 -7 38 hhcurveto
          hintmask 01010000
          104 104 53 104 hhcurveto
          38 38 -7 -19 38 hvcurveto
          300 vmoveto
          17 -38 -38 7 -37 hhcurveto
          hintmask 10100000
          -104 -104 -49 -104 hhcurveto
          -38 -39 6 19 -38 hvcurveto
          -80 vlineto
          -19 38 38 -7 39 hhcurveto
          hintmask 10010000
          103 104 50 104 hhcurveto
          38 38 -6 -18 38 hvcurveto
          endchar
        </CharString>
        <CharString name="aring">
          55 callsubr
          92 -31 -20 282 -20 hstemhm
          351 71 callgsubr
          hintmask 11100111
          -106 callsubr
          186 499 -67 callgsubr
        </CharString>
        <CharString name="asciicircum">
          210 -21 406 -20 hstem
          209 189 rmoveto
          161 302 161 -302 66 34 -202 372 rlineto
          -50 hlineto
          -202 -372 rlineto
          endchar
        </CharString>
        <CharString name="asciitilde">
          253 80 11 72 callgsubr
          379 rmoveto
          33 -37 -37 12 -38 -105 -109 -91 -103 hhcurveto
          -38 -37 11 34 -36 hvcurveto
          -80 vlineto
          -35 30 40 -10 42 116 84 91 113 hhcurveto
          43 40 -12 -33 32 hvcurveto
          endchar
        </CharString>
        <CharString name="asterisk">
          -434 263 -21 22 -21 301 139 118 -20 hstemhm
          50 278 hintmask 10111000
          442 740 rmoveto
          40 -38 21 -66 -66 -37 -21 -40 -41 79 -160 24 26 78 160 41 vhcurveto
          -132 -218 rmoveto
          32 -133 129 -42 -34 -51 -57 -84 -42 26 -20 45 64 125 19 23 vhcurveto
          56 hmoveto
          -23 125 -19 64 45 26 20 42 84 -51 57 -34 -42 -133 -129 -32 vhcurveto
          -38 -71 rmoveto
          10 -1 26 -12 -33 -172 -73 -62 -12 4 -12 10 -13 vhcurveto
          -50 36 50 -22 35 hhcurveto
          12 11 2 6 7 hvcurveto
          28 23 25 116 61 vvcurveto
          36 37 rmoveto
          -15 0 -20 -15 -43 14 -73 14 -43 hvcurveto
          -33 10 20 -19 27 hhcurveto
          7 8 1 3 8 hvcurveto
          71 23 39 55 34 vvcurveto
          4 -1 4 -1 4 vhcurveto
          38 -12 -148 80 -41 hhcurveto
          -51 287 rmoveto
          -10 -7 -4 -10 -7 vvcurveto
          1 -23 32 -77 26 -53 -20 -31 rcurveline
          -27 48 -42 101 29 vvcurveto
          19 13 15 28 5 vhcurveto
          -229 -215 rmoveto
          -24 5 26 -1 22 hhcurveto
          39 48 6 6 40 hvcurveto
          23 -28 rlineto
          -9 -40 -63 -7 -46 hhcurveto
          -39 -27 9 36 hvcurveto
          5 1 4 2 vvcurveto
          84 -261 rmoveto
          -8 8 -8 9 15 vvcurveto
          33 66 40 101 52 vhcurveto
          -2 -37 rlineto
          -24 -11 -118 -62 -31 vvcurveto
          hintmask 01111000
          -4 0 -3 3 -6 vhcurveto
          312 -38 rmoveto
          -4 -7 -7 -2 -11 hhcurveto
          -49 -23 126 72 -7 hvcurveto
          34 -13 rlineto
          -83 10 23 -86 37 hhcurveto
          130 286 rmoveto
          1 -6 0 -3 -4 vvcurveto
          -34 -23 -9 -43 -46 -63 7 9 -40 vhcurveto
          23 28 rlineto
          -6 40 48 -6 39 hhcurveto
          22 27 1 25 5 hvcurveto
          endchar
        </CharString>
        <CharString name="at">
          168 -222 60 161 117 240 53 235 50 hstem
          50 60 64 102 86 50 50 138 135 52 64 170 167 60 vstem
          587 694 rmoveto
          -357 -180 -223 -227 -231 189 -235 379 347 283 242 297 hvcurveto
          -60 hlineto
          -264 -256 -215 -314 -236 -106 196 199 204 112 207 199 136 12 -97 -51 vhcurveto
          -90 vlineto
          2 -31 -28 1 -76 hhcurveto
          -163 -75 -102 -102 -103 76 -103 137 59 64 25 46 53 hvcurveto
          24 -52 rlineto
          246 479 hlineto
          169 -201 28 -233 vhcurveto
          -272 -812 rmoveto
          -125 54 -80 164 144 vvcurveto
          145 80 160 124 55 vhcurveto
          3 -8 rlineto
          -83 -63 -60 -139 -150 vvcurveto
          -151 61 -139 83 -64 vhcurveto
          408 761 rmoveto
          92 -20 33 -72 -34 vvcurveto
          -451 -64 451 vlineto
          31 -8 63 -56 22 vhcurveto
          -29 -525 rmoveto
          -66 -28 56 57 61 31 66 64 14 13 0 -1 13 hvcurveto
          -234 vlineto
          -3 -14 -15 -2 -12 hhcurveto
          -232 89 rmoveto
          -53 25 -69 63 -42 vhcurveto
          -2 -7 rlineto
          -86 34 -50 68 69 vvcurveto
          69 50 67 86 35 vhcurveto
          2 -7 rlineto
          -63 -42 -25 -70 -52 vvcurveto
          endchar
        </CharString>
        <CharString name="atilde">
          55 callsubr
          132 16 callgsubr
          62 callgsubr
          -106 callsubr
          484 486 -78 callsubr
        </CharString>
        <CharString name="b">
          146 -36 callgsubr
          hstemhm
          -2 callsubr
          239 75 -42 76 54 167 -167 218 hintmask 11111010
          1065 296 rmoveto
          4 vlineto
          34 11 75 36 81 vvcurveto
          121 -132 9 -166 vhcurveto
          -803 -43 105 hlineto
          49 54 callgsubr
          -49 vhcurveto
          -105 -43 888 hlineto
          hintmask 11111001
          99 165 29 123 100 -115 35 -45 9 hvcurveto
          -460 138 rmoveto
          49 37 32 60 91 51 -36 -65 -71 -59 -30 -50 vhcurveto
          -130 hlineto
          -225 -270 rmoveto
          -50 472 50 hlineto
          293 -472 rmoveto
          -51 -17 35 49 hvcurveto
          148 137 vlineto
          hintmask 11110110
          75 60 -34 -82 -90 -70 -26 -56 hvcurveto
          223 366 rmoveto
          -39 -37 -42 -47 -18 vhcurveto
          -4 4 rlineto
          hintmask 11111010
          19 27 14 34 34 vvcurveto
          34 -14 34 -19 27 vhcurveto
          4 3 rlineto
          47 -18 37 -41 -39 vvcurveto
          33 -250 rmoveto
          -49 -38 -48 -57 -22 vhcurveto
          -3 4 rlineto
          hintmask 11110110
          26 29 18 42 44 vvcurveto
          44 -18 42 -26 29 vhcurveto
          3 4 rlineto
          57 -22 38 -48 -49 vvcurveto
          endchar
        </CharString>
        <CharString name="backslash">
          65 callsubr
          532 -52 rmoveto
          -400 722 rlineto
          -82 hlineto
          400 -722 rlineto
          endchar
        </CharString>
        <CharString name="bar">
          34 callsubr
          715 rmoveto
          -65 -810 65 hlineto
          endchar
        </CharString>
        <CharString name="braceleft">
          -305 -96 -21 398 58 398 -20 hstem
          144 65 73 216 vstem
          43 47 callsubr
          70 31 -14 -75 -89 82 -220 458 hvcurveto
          54 vlineto
          0 -186 9 193 vvcurveto
          152 -57 11 -84 vhcurveto
          16 vlineto
          84 57 11 152 193 186 9 0 hvcurveto
          54 vlineto
          -458 -82 -220 -89 -75 -31 -14 -70 hvcurveto
          120 -25 rmoveto
          26 10 20 25 55 vvcurveto
          140 71 90 201 48 vhcurveto
          2 -7 rlineto
          -169 -64 -32 -48 -159 vvcurveto
          -60 -38 -27 -55 -7 vhcurveto
          55 -7 38 -28 -59 vvcurveto
          -159 32 -48 169 -64 vhcurveto
          -2 -7 rlineto
          -201 48 -71 90 140 vvcurveto
          55 -20 25 -26 10 vhcurveto
          endchar
        </CharString>
        <CharString name="braceright">
          -305 -96 -21 399 56 399 -20 hstem
          307 72 73 209 vstem
          762 339 rmoveto
          -70 -31 14 75 89 -82 220 -458 hvcurveto
          -54 vlineto
          0 186 -9 -193 vvcurveto
          -152 57 -11 84 vhcurveto
          -16 vlineto
          -84 -57 -11 -152 -193 -186 -9 0 hvcurveto
          -54 vlineto
          458 82 220 89 75 31 14 70 hvcurveto
          -264 57 rmoveto
          -70 -49 18 80 159 -32 48 -129 44 hvcurveto
          2 7 rlineto
          181 -48 51 -70 -140 vvcurveto
          -55 20 -25 26 -10 vhcurveto
          -72 vmoveto
          -26 -10 -20 -25 -55 vvcurveto
          -140 -51 -70 -181 -48 vhcurveto
          -2 7 rlineto
          129 44 32 48 159 vvcurveto
          80 49 18 70 vhcurveto
          endchar
        </CharString>
        <CharString name="bracketleft">
          -405 -95 43 722 45 hstem
          150 52 callgsubr
          495 562 rmoveto
          59 49 49 60 vhcurveto
          121 45 -575 -810 575 43 -121 -1 callgsubr
          -213 -108 rmoveto
          -65 722 65 hlineto
          endchar
        </CharString>
        <CharString name="bracketright">
          -395 -95 43 722 45 hstem
          220 52 callgsubr
          220 56 rmoveto
          68 callsubr
          -121 -43 575 810 -575 -45 121 hlineto
          60 49 -49 -59 hvcurveto
          67 108 rmoveto
          65 -722 -65 hlineto
          endchar
        </CharString>
        <CharString name="breve">
          -620 591 135 -63 63 61 -20 hstemhm
          hintmask 10100000
          246 726 rmoveto
          -81 -53 28 33 -41 hvcurveto
          -21 -6 rlineto
          -105 89 -85 107 109 85 85 105 vhcurveto
          -20 6 rlineto
          -33 -40 -52 -28 -82 hhcurveto
          hintmask 01100000
          -63 vmoveto
          54 48 18 24 32 hvcurveto
          5 -3 rlineto
          -48 -27 -54 -31 -58 hhcurveto
          -57 -54 31 48 -27 hvcurveto
          5 3 rlineto
          -24 32 50 -18 51 hhcurveto
          endchar
        </CharString>
        <CharString name="brokenbar">
          34 callsubr
          233 rmoveto
          -65 -328 65 hlineto
          810 vmoveto
          -65 -328 65 hlineto
          endchar
        </CharString>
        <CharString name="bullet">
          -555 202 -21 291 -20 hstem
          90 67 65 243 vstem
          90 181 rmoveto
          375 291 -375 hlineto
          132 -251 rmoveto
          -65 211 65 hlineto
          endchar
        </CharString>
        <CharString name="c">
          -167 -22 41 -41 145 414 60 callgsubr
          hintmask 01101100
          840 32 rmoveto
          17 callgsubr
          hintmask 10101100
          -50 callgsubr
          hlineto
          hintmask 10011100
          208 -47 -40 vlineto
          hintmask 10101100
          35 callgsubr
          -214 256 -89 293 -39 callgsubr
        </CharString>
        <CharString name="caron">
          -419 624 146 -38 -20 hstemhm
          hintmask 10000000
          508 624 -43 callsubr
          hintmask 01000000
          -13 callgsubr
        </CharString>
        <CharString name="ccedilla">
          -167 -223 48 154 40 518 60 callgsubr
          83 210 -100 100 hintmask 11101110
          238 -10 callsubr
          49 -43 38 -64 25 hvcurveto
          115 3 75 24 53 26 rrcurveto
          -34 callsubr
          hlineto
          hintmask 11011110
          208 -47 -40 vlineto
          hintmask 11101110
          35 callgsubr
          -176 172 -91 223 -27 20 callgsubr
          -106 358 -56 callgsubr
          380 -303 rmoveto
          hintmask 11101101
          -46 callgsubr
        </CharString>
        <CharString name="cedilla">
          -544 -223 48 191 -20 hstemhm
          306 210 -100 100 hintmask 11100000
          50 -10 callsubr
          98 -171 51 -170 hvcurveto
          -16 vlineto
          88 -13 43 -37 -55 3 callgsubr
          274 55 rmoveto
          hintmask 11010000
          -46 callgsubr
        </CharString>
        <CharString name="cent">
          -167 -89 -21 696 41 133 -20 hstem
          22 55 55 279 69 50 vstem
          840 81 rmoveto
          -34 callsubr
          208 -47 -40 hlineto
          30 -85 -105 31 -113 hhcurveto
          -11 131 -50 -133 hlineto
          -223 -13 -235 -86 -198 vvcurveto
          -192 205 -91 253 -17 vhcurveto
          -140 50 137 41 vlineto
          -39 callgsubr
        </CharString>
        <CharString name="circumflex">
          -419 624 -2 callgsubr
          hintmask 10000000
          184 770 -91 callsubr
          hintmask 01100000
          -75 callsubr
        </CharString>
        <CharString name="colon">
          -516 -1 -21 656 -20 hstemhm
          91 410 -321 321 hintmask 11100000
          501 508 rmoveto
          -79 callgsubr
          hintmask 11010000
          -321 -94 callsubr
          321 -405 rmoveto
          69 -92 57 -113 vhcurveto
          hintmask 11100000
          -72 callsubr
          hvcurveto
          hintmask 11010000
          -321 -94 callsubr
          endchar
        </CharString>
        <CharString name="comma">
          -515 -130 -21 150 28 callgsubr
          91 404 vstem
          181 103 -83 callgsubr
        </CharString>
        <CharString name="copyright">
          -335 192 147 244 139 hstemhm
          45 307 -135 135 hintmask 11100000
          -60 callgsubr
          424 -109 rmoveto
          20 13 11 11 8 vvcurveto
          7 -4 1 -3 vhcurveto
          -11 -30 -49 -76 hhcurveto
          -44 -15 23 53 hvcurveto
          110 vlineto
          33 10 25 35 48 46 -48 -40 16 vhcurveto
          14 96 -14 -20 hlineto
          15 -31 -37 15 -40 hhcurveto
          hintmask 11010000
          -84 -98 -38 -101 -99 90 -41 103 45 29 13 13 20 hvcurveto
          endchar
        </CharString>
        <CharString name="d">
          158 21 callgsubr
          265 63 49 224 285 81 63 216 vstem
          70 25 callsubr
          -43 105 vlineto
          49 41 -41 -48 hvcurveto
          -294 vlineto
          -66 -41 70 callgsubr
          729 hlineto
          159 288 50 240 197 -263 71 -261 hvcurveto
          -345 -516 rmoveto
          -49 473 49 hlineto
          293 -472 rmoveto
          -52 -17 34 49 hvcurveto
          309 vlineto
          48 37 32 61 144 43 -103 -134 -118 -36 -117 -103 vhcurveto
          283 235 rmoveto
          -93 -46 -89 -84 -47 4 callgsubr
          46 60 25 83 83 vvcurveto
          83 -25 83 -46 60 vhcurveto
          4 3 rlineto
          84 -47 46 -89 -93 vvcurveto
          endchar
        </CharString>
        <CharString name="dagger">
          -39 -124 -21 592 83 276 60 callsubr
          711 806 rmoveto
          -351 -177 hlineto
          29 callsubr
          -493 351 493 -17 callgsubr
          -232 57 rmoveto
          -89 67 callsubr
          210 58 vlineto
          -873 vmoveto
          -58 526 hlineto
          24 -10 34 -30 -90 vvcurveto
          endchar
        </CharString>
        <CharString name="daggerdbl">
          -39 -125 -21 231 83 324 83 231 60 callsubr
          479 731 rmoveto
          -89 67 callsubr
          165 58 vlineto
          -58 -302 rmoveto
          24 -10 34 -31 -71 vvcurveto
          -46 vlineto
          -72 67 callsubr
          -61 72 rmoveto
          -51 -42 -48 -52 vhcurveto
          -203 -83 199 hlineto
          54 44 -46 -53 hvcurveto
          -132 351 132 -17 callgsubr
          126 -17 callgsubr
          132 -351 -132 vlineto
          29 callsubr
          119 -500 rmoveto
          -58 165 hlineto
          24 -10 34 -30 -89 vvcurveto
          endchar
        </CharString>
        <CharString name="degree">
          -663 451 60 267 60 hstem
          30 60 267 60 vstem
          30 644 rmoveto
          -107 86 -86 107 107 87 86 107 107 -87 87 -107 -107 -86 -87 -107 vhcurveto
          60 hmoveto
          74 59 60 74 74 60 -60 -74 -74 -60 -59 -74 -74 -59 59 74 vhcurveto
          endchar
        </CharString>
        <CharString name="dieresis">
          -225 614 -21 228 -20 hstem
          77 39 callsubr
          vstem
          807 706 -86 callsubr
          -105 callgsubr
        </CharString>
        <CharString name="divide">
          73 161 64 80 64 161 hstem
          265 210 cntrmask 11100000
          475 153 rmoveto
          26 callsubr
          369 vmoveto
          26 callsubr
          165 -144 -18 callgsubr
        </CharString>
        <CharString name="dollar">
          151 -89 -21 89 66 callsubr
          130 -20 hstemhm
          96 61 427 50 224 308 -189 189 hintmask 1011011110000000
          96 447 rmoveto
          -155 269 -64 219 -50 vhcurveto
          -149 vlineto
          -217 35 -190 134 -36 83 rrcurveto
          -47 -281 47 hlineto
          28 58 145 -45 115 -27 155 -6 rlinecurve
          -90 50 vlineto
          hintmask 1100111101000000
          89 10 vlineto
          337 185 65 162 209 -315 34 -217 37 hvcurveto
          137 vlineto
          175 -26 232 -98 42 -60 rrcurveto
          47 211 -47 hlineto
          -18 -43 -110 24 -183 29 -138 8 rlinecurve
          92 -50 vlineto
          hintmask 1101011101000000
          -90 -17 vlineto
          -35 callsubr
          -63 callgsubr
          hintmask 1101011110000000
          -119 1 rmoveto
          -43 -90 -7 -77 -19 -19 1 1 -19 vhcurveto
          145 vlineto
          126 -29 98 -27 -41 vvcurveto
          -427 505 rmoveto
          42 56 12 71 vhcurveto
          8 9 -1 9 hhcurveto
          -133 vlineto
          -90 18 -63 21 41 vvcurveto
          endchar
        </CharString>
        <CharString name="dotaccent">
          -736 614 -21 228 -20 hstem
          50 274 vstem
          324 706 -86 callsubr
          -212 hmoveto
          -31 11 -28 16 -19 vhcurveto
          -2 -3 rlineto
          -35 16 -25 32 33 vvcurveto
          33 25 32 35 16 vhcurveto
          2 -3 rlineto
          -16 -19 -11 -28 -31 vvcurveto
          endchar
        </CharString>
        <CharString name="dotlessi">
          -60 callsubr
        </CharString>
        <CharString name="e">
          61 callgsubr
          hstem
          40 callgsubr
          vstem
          -102 callgsubr
          endchar
        </CharString>
        <CharString name="eacute">
          -82 callsubr
          409 599 -77 callsubr
          hintmask 11011111
          -101 callgsubr
        </CharString>
        <CharString name="ecircumflex">
          61 callgsubr
          66 -2 callgsubr
          40 callgsubr
          hintmask 11110011
          -102 callgsubr
          116 727 -91 callsubr
          hintmask 11101111
          -75 callsubr
        </CharString>
        <CharString name="edieresis">
          61 callgsubr
          24 callsubr
          267 62 -32 274 -191 225 -225 410 -37 274 hintmask 1111101010000000
          -102 callgsubr
          647 663 -86 callsubr
          hintmask 1111010010000000
          -105 callsubr
          hintmask 1111100100000000
          -104 callgsubr
          endchar
        </CharString>
        <CharString name="egrave">
          -82 callsubr
          85 599 -65 callsubr
          hintmask 11011111
          -96 callgsubr
        </CharString>
        <CharString name="eight">
          -12 -1 -21 692 -20 hstemhm
          57 55 15 57 -16 225 -161 161 313 62 36 168 -149 218 hintmask 1111011100000000
          722 385 rmoveto
          20 37 13 41 44 vvcurveto
          42 -13 43 -19 37 vhcurveto
          4 4 rlineto
          47 -32 30 -44 -50 vvcurveto
          -49 -30 -44 -48 -32 vhcurveto
          -373 -2 rmoveto
          -102 29 -67 46 52 vvcurveto
          54 69 49 105 27 vhcurveto
          1 -4 rlineto
          -77 -29 -50 -46 -51 vvcurveto
          -51 48 -43 75 -29 vhcurveto
          38 121 rmoveto
          92 33 48 123 123 34 -48 -92 -94 -59 -42 -98 -98 -58 42 94 vhcurveto
          -72 -485 rmoveto
          -126 32 -83 57 65 vvcurveto
          65 82 56 125 33 vhcurveto
          2 -4 rlineto
          hintmask 1110101010000000
          -93 -33 -60 -55 -62 vvcurveto
          -62 62 -55 93 -33 vhcurveto
          226 -12 rmoveto
          -99 -58 55 107 116 48 55 109 119 38 -67 -104 -107 -58 -55 -99 hvcurveto
          179 16 rmoveto
          25 44 15 50 52 vvcurveto
          52 -15 50 -24 44 vhcurveto
          2 4 rlineto
          58 -37 34 -53 -60 vvcurveto
          -59 -34 -54 -57 -36 vhcurveto
          hintmask 1111011100000000
          240 482 rmoveto
          90 -164 73 -259 -258 -164 -73 -90 -65 96 -56 141 -26 vhcurveto
          -4 vlineto
          -193 -28 -114 -71 -83 vvcurveto
          -108 220 -88 272 vhcurveto
          hintmask 1111011010000000
          272 220 88 108 83 -114 71 -192 28 hvcurveto
          4 vlineto
          hintmask 1111011100000000
          140 26 97 56 65 vvcurveto
          endchar
        </CharString>
        <CharString name="ellipsis">
          672 -1 28 callgsubr
          501 103 rmoveto
          -93 callgsubr
          915 hmoveto
          -93 callgsubr
          915 hmoveto
          -93 callgsubr
          endchar
        </CharString>
        <CharString name="emdash">
          102 263 80 hstem
          1112 343 rmoveto
          -1012 -80 1012 hlineto
          endchar
        </CharString>
        <CharString name="endash">
          -100 263 80 hstem
          910 343 61 callsubr
        </CharString>
        <CharString name="equal">
          188 80 140 72 callgsubr
          268 rmoveto
          -540 -80 540 hlineto
          300 vmoveto
          -18 callsubr
        </CharString>
        <CharString name="eth">
          34 -22 43 450 44 51 -20 160 43 -25 -20 -25 callgsubr
          -191 191 358 63 69 221 hintmask 1111010011000000
          1134 749 rmoveto
          -256 -51 rlineto
          35 -80 -92 16 -93 hhcurveto
          -148 -117 -28 -34 -111 hvcurveto
          hintmask 1110100111000000
          37 -35 -158 35 vlineto
          hintmask 1111010011000000
          0 156 140 153 64 45 -18 -29 30 vhcurveto
          -91 -15 rlineto
          -60 vlineto
          127 21 rlineto
          13 -31 6 -37 -37 vvcurveto
          9 -52 -56 6 -60 hhcurveto
          -336 -214 -124 -146 -147 247 -120 303 367 165 191 191 134 -59 96 -89 63 hvcurveto
          178 36 rlineto
          -562 -218 rmoveto
          141 38 -80 -147 -147 -66 -76 -113 -113 -66 76 147 147 39 80 140 hvcurveto
          199 190 rmoveto
          69 -73 43 -107 -121 vvcurveto
          -122 -44 -106 -69 -74 vhcurveto
          -4 4 rlineto
          30 92 18 99 107 vvcurveto
          107 -18 101 -29 89 vhcurveto
          hintmask 1111001011000000
          -637 -412 rmoveto
          -103 107 -79 149 -34 -25 callsubr
          35 -134 81 107 vvcurveto
          107 134 81 189 34 vhcurveto
          2 -5 rlineto
          -150 -34 -107 -79 -104 vvcurveto
          endchar
        </CharString>
        <CharString name="exclam">
          64 callsubr
          109 74 -43 67 hintmask 11100000
          568 113 6 callgsubr
          569 rmoveto
          78 -73 41 -126 vhcurveto
          hintmask 11010000
          -128 -71 -41 -78 -76 152 -309 47 48 151 309 76 hvcurveto
          -235 68 rmoveto
          -25 -9 -23 -18 -17 vvcurveto
          1 -46 64 -161 49 -99 -30 -48 rcurveline
          -51 89 -81 200 54 vvcurveto
          33 43 22 49 9 vhcurveto
          -62 -646 -22 callgsubr
        </CharString>
        <CharString name="exclamdown">
          64 callsubr
          108 74 -43 67 hintmask 11100000
          567 465 6 callgsubr
          -569 rmoveto
          76 -151 309 -48 vhcurveto
          hintmask 11010000
          -47 -152 -309 -76 -78 71 -41 128 126 73 41 78 hvcurveto
          -239 -77 rmoveto
          -49 9 -43 22 33 vvcurveto
          54 81 200 51 89 vhcurveto
          30 -48 -49 -99 -64 -161 -1 -46 rlinecurve
          -17 23 -18 25 -9 vhcurveto
          -66 637 -22 callgsubr
        </CharString>
        <CharString name="f">
          -40 32 callsubr
          -87 callsubr
          endchar
        </CharString>
        <CharString name="fi">
          841 32 callsubr
          734 2 callsubr
          -87 callsubr
          1296 382 -72 callgsubr
        </CharString>
        <CharString name="five">
          -90 -22 40 3 -21 383 53 89 125 13 -20 hstemhm
          622 336 -241 241 hintmask 10110010
          958 211 rmoveto
          174 -278 51 -169 -170 -76 -27 -39 -99 vhcurveto
          121 155 rlineto
          431 hlineto
          253 125 -23 13 rlineto
          hintmask 10101100
          0 -10 -13 -52 vhcurveto
          -437 hlineto
          hintmask 10110100
          -75 -3 13 0 hvcurveto
          hintmask 10101100
          -20 hlineto
          -302 -384 17 -16 rlineto
          0 118 120 186 232 20 -120 -66 -66 -24 -113 -158 -192 -95 99 82 -68 vhcurveto
          -35 -199 35 43 hlineto
          0 148 -65 209 222 294 60 173 vhcurveto
          -372 176 rmoveto
          hintmask 01110100
          1 131 -28 -158 vvcurveto
          -161 -111 -23 0 vhcurveto
          -1 4 rlineto
          hintmask 10110100
          0 62 41 137 vvcurveto
          137 -83 46 0 vhcurveto
          endchar
        </CharString>
        <CharString name="fl">
          1040 32 callsubr
          732 63 50 225 -87 callsubr
          1295 382 -53 callsubr
        </CharString>
        <CharString name="florin">
          -258 -199 45 568 50 391 -20 hstem
          -24 callgsubr
          vstem
          606 325 rmoveto
          66 41 23 49 vhcurveto
          126 50 -222 hlineto
          -100 -103 32 177 hvcurveto
          17 9 rlineto
          -43 22 61 -55 90 hhcurveto
          102 81 61 76 74 -79 60 -99 -168 -91 -140 -251 -87 hvcurveto
          -223 -50 156 hlineto
          49 41 -41 -48 hvcurveto
          -393 vlineto
          -48 -41 -38 -49 vhcurveto
          -106 -45 345 hlineto
          130 58 70 129 hvcurveto
          -224 -43 rmoveto
          -40 -16 -56 -108 -23 vhcurveto
          -2 7 rlineto
          65 26 10 50 36 vvcurveto
          344 vlineto
          36 -10 50 -65 26 vhcurveto
          2 7 rlineto
          108 -23 16 -56 -40 vvcurveto
          103 420 rmoveto
          -37 11 -33 21 -26 vhcurveto
          -45 19 -32 36 41 vvcurveto
          39 32 36 45 19 vhcurveto
          -21 -24 -11 -33 -37 vvcurveto
          endchar
        </CharString>
        <CharString name="four">
          -98 0 43 135 42 387 43 hstem
          424 52 callgsubr
          956 178 rmoveto
          42 -187 277 vlineto
          60 49 50 59 vhcurveto
          78 43 -491 hlineto
          -407 -430 rlineto
          -42 367 -27 vlineto
          68 callsubr
          -77 -43 717 43 -78 hlineto
          -59 -49 28 80 hvcurveto
          27 vlineto
          -626 42 rmoveto
          302 350 rlineto
          0 -21 -52 -93 vvcurveto
          -205 vlineto
          132 -178 rmoveto
          -65 565 65 hlineto
          endchar
        </CharString>
        <CharString name="fraction">
          -544 -1 -21 692 -20 hstem
          112 -55 callsubr
          endchar
        </CharString>
        <CharString name="g">
          59 -22 42 -3 -21 296 42 206 40 -17 -20 hstemhm
          22 59 58 272 299 62 51 216 hintmask 1011011110000000
          516 334 rmoveto
          -42 100 vlineto
          46 48 -36 -47 hvcurveto
          -61 vlineto
          -108 -84 -20 -52 -135 -28 76 79 vhcurveto
          241 vlineto
          89 79 35 97 147 148 -103 -58 40 vhcurveto
          45 hlineto
          hintmask 1010111110000000
          184 -47 -36 vlineto
          hintmask 1011011110000000
          36 -122 -137 17 -120 hhcurveto
          -276 -243 -56 -235 -221 241 -90 308 hvcurveto
          203 98 72 64 hhcurveto
          hintmask 0111011110000000
          38 20 -23 -31 hvcurveto
          45 296 162 42 hlineto
          -378 -152 rmoveto
          -66 -22 -54 -18 -6 -5 11 53 vhcurveto
          165 51 vlineto
          -684 -4 rmoveto
          -86 36 -84 70 -49 46 callgsubr
          -89 40 -72 72 112 vvcurveto
          113 72 72 89 40 46 callsubr
          -70 -49 -36 -84 -87 vvcurveto
          endchar
        </CharString>
        <CharString name="germandbls">
          140 -22 40 -18 -23 callsubr
          92 44 hstemhm
          -24 callgsubr
          219 193 -134 53 -13 94 -34 266 hintmask 1011110101000000
          896 29 rmoveto
          30 43 11 60 40 vvcurveto
          42 -13 70 -38 41 vhcurveto
          4 5 rlineto
          64 -45 30 -57 -56 vvcurveto
          -53 -28 -55 -56 -39 vhcurveto
          -73 402 rmoveto
          -5 3 rlineto
          32 34 22 42 38 vvcurveto
          23 -7 24 -10 21 58 callgsubr
          hintmask 0111110010000000
          37 -21 23 -31 -32 vvcurveto
          -45 -53 -38 -44 -21 vhcurveto
          -379 168 rmoveto
          -65 -58 -1 -88 -44 vvcurveto
          -362 -51 353 vlineto
          40 2 104 113 62 vhcurveto
          -177 -471 rmoveto
          -7 callsubr
          533 550 hlineto
          66 55 34 56 vhcurveto
          hintmask 1011111000000000
          54 54 -33 -67 -65 -42 -58 -81 -32 hvcurveto
          -28 vlineto
          hintmask 1011110101000000
          114 -25 68 -69 -93 vvcurveto
          -90 -49 -72 -95 -25 -24 2 5 -25 vhcurveto
          -5 -42 rlineto
          -3 34 36 -2 36 hhcurveto
          272 211 78 127 92 -132 86 -231 18 hvcurveto
          5 vlineto
          hintmask 1011111000000000
          89 36 42 64 53 vvcurveto
          96 -150 61 -172 -220 -120 -50 -86 -70 vhcurveto
          -213 -43 106 hlineto
          48 42 -40 -47 hvcurveto
          endchar
        </CharString>
        <CharString name="grave">
          43 callsubr
          hintmask 10110000
          198 642 -65 callsubr
          hintmask 01110000
          -96 callgsubr
        </CharString>
        <CharString name="greater">
          108 -21 504 -20 hstem
          107 520 6 callsubr
          endchar
        </CharString>
        <CharString name="greaterequal">
          0 80 573 -20 hstem
          114 582 6 callsubr
          492 -573 -18 callgsubr
        </CharString>
        <CharString name="guillemotleft">
          -432 -38 callgsubr
          225 -45 rmoveto
          -61 callgsubr
          endchar
        </CharString>
        <CharString name="guillemotright">
          -432 -40 callsubr
          456 74 -62 callsubr
          endchar
        </CharString>
        <CharString name="guilsinglleft">
          -757 -38 callgsubr
          endchar
        </CharString>
        <CharString name="guilsinglright">
          -757 -40 callsubr
          endchar
        </CharString>
        <CharString name="h">
          372 0 43 231 43 198 -16 callsubr
          266 64 50 223 vstem
          1208 426 rmoveto
          48 41 41 49 vhcurveto
          105 43 -646 -43 hlineto
          93 21 -33 -47 hvcurveto
          -118 -266 118 vlineto
          47 21 33 93 vhcurveto
          43 -646 -43 105 vlineto
          49 40 -41 -48 hvcurveto
          -294 vlineto
          -66 -40 70 callgsubr
          646 43 hlineto
          -114 0 35 49 hvcurveto
          113 vlineto
          16 7 18 26 vhcurveto
          200 hlineto
          26 7 -18 -16 hvcurveto
          -113 vlineto
          -49 -1 -35 -113 vhcurveto
          -43 646 43 -105 vlineto
          -49 -41 22 66 hvcurveto
          -828 384 rmoveto
          -472 -50 472 vlineto
          655 hmoveto
          -472 -50 472 vlineto
          endchar
        </CharString>
        <CharString name="hungarumlaut">
          -181 624 146 -110 -20 102 -20 hstemhm
          hintmask 10000000
          336 642 rmoveto
          121 31 23 97 0 vvcurveto
          -241 hlineto
          hintmask 01100000
          -70 -42 -45 -40 -102 hhcurveto
          hintmask 10000000
          -36 15 vlineto
          73 128 1 17 70 hvcurveto
          -158 25 rmoveto
          hintmask 01100000
          -90 callsubr
          557 -21 rmoveto
          hintmask 10000000
          121 31 23 97 0 vvcurveto
          -241 hlineto
          hintmask 01100000
          -70 -42 -45 -40 -102 hhcurveto
          hintmask 10000000
          -36 15 vlineto
          73 128 1 17 70 hvcurveto
          -158 25 rmoveto
          hintmask 01100000
          -90 callsubr
          endchar
        </CharString>
        <CharString name="hyphen">
          263 72 callgsubr
          343 -18 callgsubr
        </CharString>
        <CharString name="i">
          -60 callsubr
        </CharString>
        <CharString name="iacute">
          -64 callgsubr
          185 599 -44 callgsubr
        </CharString>
        <CharString name="icircumflex">
          -6 callgsubr
          66 -2 callgsubr
          -24 callgsubr
          hintmask 11100110
          -83 callsubr
          -103 727 -91 callsubr
          hintmask 11011110
          -75 callsubr
        </CharString>
        <CharString name="idieresis">
          -6 callgsubr
          24 callsubr
          76 274 -19 51 150 274 -200 200 hintmask 11101010
          -83 callsubr
          424 663 rmoveto
          -45 callsubr
          vhcurveto
          hintmask 11110100
          -93 callsubr
          hvcurveto
          -105 callgsubr
        </CharString>
        <CharString name="igrave">
          -64 callgsubr
          -69 599 -65 callsubr
          hintmask 10111110
          -96 callgsubr
        </CharString>
        <CharString name="infinity">
          -248 131 76 256 76 hstem
          50 77 608 77 vstem
          630 131 rmoveto
          103 79 80 121 133 -81 74 -96 -91 -62 -41 -97 -52 hvcurveto
          82 -52 -58 56 -89 hhcurveto
          -102 -79 -80 -121 -133 81 -74 96 91 62 41 98 52 hvcurveto
          -83 52 58 -56 88 hhcurveto
          -391 76 rmoveto
          -67 -45 54 76 78 45 48 67 62 48 -55 -65 41 hvcurveto
          -84 -34 -61 -52 -56 hhcurveto
          384 256 rmoveto
          67 45 -54 -76 -78 -45 -48 -67 -61 -48 55 66 -42 hvcurveto
          83 34 61 52 56 hhcurveto
          endchar
        </CharString>
        <CharString name="integral">
          -326 -199 43 914 43 hstem
          197 67 64 259 vstem
          328 31 29 callgsubr
          302 86 rmoveto
          -339 -94 -82 -136 hvcurveto
          -631 -40 callgsubr
          endchar
        </CharString>
        <CharString name="j">
          -180 -21 42 0 -21 515 43 hstemhm
          403 62 50 225 hintmask 01111000
          515 176 rmoveto
          -70 -32 -43 -18 -6 vhcurveto
          458 50 vlineto
          -307 43 rmoveto
          -43 105 vlineto
          18 callgsubr
          -315 vlineto
          -66 -41 -23 -49 -191 -90 204 0 vhcurveto
          -46 -225 47 45 hlineto
          hintmask 10111000
          -27 55 134 -39 147 hhcurveto
          291 80 70 117 hvcurveto
          259 vlineto
          27 callsubr
          86 43 hlineto
          endchar
        </CharString>
        <CharString name="k">
          316 0 43 209 47 216 30 callsubr
          380 43 rmoveto
          -50 472 50 hlineto
          646 -472 rmoveto
          -68 hlineto
          -196 232 rlineto
          69 hlineto
          -72 -275 rmoveto
          43 -64 vlineto
          -50 -40 23 65 hvcurveto
          86 vlineto
          17 6 18 27 vhcurveto
          66 hlineto
          225 -252 rlineto
          475 43 -115 hlineto
          -253 299 rlineto
          -8 10 -4 11 8 vvcurveto
          14 13 14 11 7 vhcurveto
          15 26 169 94 68 hhcurveto
          93 43 -508 -43 hlineto
          87 31 -5 -29 -27 -33 -26 -67 -32 hvcurveto
          -31 -66 -127 -66 -52 hhcurveto
          -18 hlineto
          -40 -6 24 23 hvcurveto
          89 vlineto
          47 35 33 57 vhcurveto
          98 43 -722 51 callsubr
          0 callgsubr
          -65 -40 70 callgsubr
          hlineto
          endchar
        </CharString>
        <CharString name="l">
          -30 0 42 473 30 callsubr
          605 425 -53 callsubr
        </CharString>
        <CharString name="less">
          108 -21 504 -20 hstem
          619 158 5 callsubr
          endchar
        </CharString>
        <CharString name="lessequal">
          0 80 573 -20 hstem
          626 220 5 callsubr
          48 -69 -18 callgsubr
        </CharString>
        <CharString name="logicalnot">
          129 -21 190 80 hstem
          562 78 vstem
          100 378 rmoveto
          -80 462 -190 78 270 vlineto
          endchar
        </CharString>
        <CharString name="lozenge">
          -170 -199 44 433 45 433 45 hstem
          890 279 rmoveto
          44 vlineto
          -162 478 rlineto
          -512 hlineto
          -166 -478 rlineto
          -44 vlineto
          162 -478 rlineto
          512 hlineto
          -524 477 rmoveto
          70 callsubr
          -82 hlineto
          68 callgsubr
          705 hmoveto
          -151 -433 rlineto
          -143 hlineto
          68 callgsubr
          221 45 rmoveto
          68 callgsubr
          82 hlineto
          70 callsubr
          -568 hmoveto
          147 433 rlineto
          126 hlineto
          70 callsubr
          endchar
        </CharString>
        <CharString name="lslash">
          -30 0 42 473 30 callsubr
          605 425 -23 callgsubr
          -165 50 callgsubr
          -49 -45 callgsubr
          158 vlineto
          150 49 rlineto
          80 vlineto
          -150 -49 rlineto
          -275 -326 34 callgsubr
        </CharString>
        <CharString name="m">
          482 21 callgsubr
          301 60 627 62 50 225 vstem
          1050 515 rmoveto
          50 -472 -50 hlineto
          510 472 rmoveto
          43 -584 vlineto
          -47 -73 -47 -75 -48 -73 -259 221 rcurveline
          -553 -43 hlineto
          140 139 -73 -114 hvcurveto
          -90 vlineto
          -144 -155 -51 -113 vhcurveto
          -43 596 43 vlineto
          -113 -155 51 144 hvcurveto
          108 vlineto
          325 -274 rlineto
          47 hlineto
          84 131 87 134 84 132 rrcurveto
          -338 62 callsubr
          -22 -50 vhcurveto
          -104 -43 766 43 -145 hlineto
          -49 -41 22 66 hvcurveto
          319 vlineto
          49 41 16 49 vhcurveto
          -701 -366 rmoveto
          -18 hlineto
          -145 123 -142 120 -144 123 rrcurveto
          76 hlineto
          122 -105 128 -107 123 -104 rrcurveto
          endchar
        </CharString>
        <CharString name="macron">
          -605 630 134 -114 -20 114 -20 hstemhm
          hintmask 10000000
          50 630 rmoveto
          405 134 -405 hlineto
          hintmask 01100000
          115 -114 rmoveto
          -54 94 54 hlineto
          endchar
        </CharString>
        <CharString name="minus">
          298 72 callgsubr
          378 -18 callgsubr
        </CharString>
        <CharString name="mu">
          329 -199 44 155 43 -16 76 412 44 hstemhm
          216 63 51 210 -210 223 328 63 51 223 hintmask 1101110110000000
          540 43 rmoveto
          hintmask 1011110110000000
          -11 37 35 -5 33 hhcurveto
          88 75 37 65 73 hvcurveto
          hintmask 1101110110000000
          -129 533 43 -106 vlineto
          -49 -41 41 48 hvcurveto
          427 53 callsubr
          -234 vlineto
          hintmask 1011101110000000
          -45 -46 -77 -44 -82 hhcurveto
          -110 -13 74 48 hvcurveto
          334 53 callsubr
          -467 vlineto
          -133 105 -25 133 vhcurveto
          296 44 -81 hlineto
          hintmask 1101110110000000
          -93 -36 44 67 hvcurveto
          -329 572 rmoveto
          70 -13 49 -31 -58 vvcurveto
          -456 vlineto
          -66 21 -33 32 -16 vhcurveto
          -1 -8 rlineto
          -61 11 -42 32 80 vvcurveto
          456 vlineto
          51 -28 29 -42 15 vhcurveto
          667 7 rmoveto
          70 -13 49 -31 -58 vvcurveto
          -383 -51 383 vlineto
          51 -28 29 -42 15 vhcurveto
          endchar
        </CharString>
        <CharString name="multiply">
          122 -21 474 -20 hstem
          133 520 rmoveto
          182 -182 -182 -182 55 -55 182 182 182 -182 55 55 -182 182 182 182 -55 55 -182 -182 -182 182 rlineto
          endchar
        </CharString>
        <CharString name="n">
          214 -15 -21 36 -23 callsubr
          hstem
          301 61 693 60 vstem
          -76 callsubr
          endchar
        </CharString>
        <CharString name="nine">
          -23 -22 40 -4 -21 221 48 362 40 hstemhm
          57 63 47 210 316 65 56 216 hintmask 10111111
          179 27 rmoveto
          0 125 -49 214 274 238 127 208 224 -243 127 -241 -240 -249 -95 -151 -150 184 -54 159 158 135 62 0 -164 -53 -94 -152 -153 -156 140 0 vhcurveto
          -35 -165 35 hlineto
          515 325 rmoveto
          0 -100 -56 -90 -90 -37 79 95 60 7 128 156 144 10 -125 -117 vhcurveto
          -15 -354 rmoveto
          0 79 115 169 vvcurveto
          217 -48 69 0 vhcurveto
          3 2 rlineto
          2 2 99 -93 -197 vvcurveto
          -197 -133 -90 0 vhcurveto
          -445 239 rmoveto
          hintmask 01111111
          -4 1 -112 27 120 vvcurveto
          121 114 33 0 vhcurveto
          1 -3 rlineto
          4 2 -72 -48 -105 vvcurveto
          -105 70 -40 0 vhcurveto
          endchar
        </CharString>
        <CharString name="notequal">
          -1 -21 210 80 140 80 182 -20 hstem
          640 488 rmoveto
          -151 hlineto
          104 182 rlineto
          -52 hlineto
          -104 -182 rlineto
          -337 -80 292 hlineto
          -80 -140 rlineto
          -212 -80 166 hlineto
          -119 -210 rlineto
          52 hlineto
          119 210 rlineto
          322 80 -276 hlineto
          80 140 rlineto
          196 hlineto
          endchar
        </CharString>
        <CharString name="ntilde">
          230 -15 -21 36 -23 callsubr
          -43 132 16 callgsubr
          301 61 693 60 hintmask 1110100101100000
          -76 callsubr
          -115 655 rmoveto
          hintmask 1101010011100000
          12 callgsubr
          hintmask 1110100101100000
          -79 callsubr
          hintmask 1110001011100000
          -15 callsubr
          hintmask 1110100011100000
          -37 callgsubr
          hintmask 1110010011100000
          1 callgsubr
          hintmask 1110100101100000
          -70 callsubr
          hintmask 1110010011100000
          0 callsubr
          hintmask 1110100011100000
          -71 callgsubr
        </CharString>
        <CharString name="numbersign">
          -270 -29 -21 205 80 180 80 205 -20 hstem
          140 495 rmoveto
          -21 -80 rlineto
          134 hlineto
          -48 -180 rlineto
          -134 hlineto
          -21 -80 rlineto
          134 48 callsubr
          220 48 callsubr
          135 hlineto
          21 80 rlineto
          -135 hlineto
          48 180 rlineto
          136 hlineto
          21 80 rlineto
          -135 49 callgsubr
          -220 49 callgsubr
          58 -80 rmoveto
          220 hlineto
          -48 -180 rlineto
          -220 hlineto
          endchar
        </CharString>
        <CharString name="o">
          11 callgsubr
          -54 callgsubr
          hintmask 11101100
          -94 callgsubr
          hintmask 11011100
          -102 callsubr
          endchar
        </CharString>
        <CharString name="oacute">
          -88 callsubr
          -68 122 -77 callsubr
          -101 callgsubr
        </CharString>
        <CharString name="ocircumflex">
          11 callgsubr
          44 146 -108 -20 103 -20 -54 callgsubr
          hintmask 1110010110000000
          -94 callgsubr
          hintmask 1110001110000000
          -102 callsubr
          -356 250 -91 callsubr
          hintmask 1101110110000000
          -75 callsubr
        </CharString>
        <CharString name="odieresis">
          11 callgsubr
          241 -20 hstemhm
          22 222 -114 263 -186 39 callsubr
          -186 63 69 238 hintmask 1111000110000000
          -95 callsubr
          hvcurveto
          hintmask 1110100110000000
          -48 callgsubr
          -102 callsubr
          hintmask 1110011000000000
          170 186 -86 callsubr
          -97 callsubr
          hintmask 1111001000000000
          -104 callgsubr
          456 hmoveto
          -36 12 -30 19 -21 -49 callgsubr
          -104 callgsubr
          endchar
        </CharString>
        <CharString name="oe">
          624 36 callsubr
          hstemhm
          73 371 -263 263 373 31 callsubr
          hintmask 11110110
          623 25 callsubr
          -336 -214 -123 -154 -155 247 -126 303 hvcurveto
          -99 callgsubr
          209 115 -83 -74 54 vhcurveto
          29 200 hlineto
          hintmask 11101110
          -1473 -277 rmoveto
          -110 107 -84 149 -36 -25 callsubr
          38 -134 85 114 vvcurveto
          114 134 86 189 36 -19 callgsubr
          -36 -107 -83 -111 vvcurveto
          547 234 rmoveto
          50 39 0 callgsubr
          -66 -39 -22 -50 vhcurveto
          -105 hlineto
          -113 -66 80 157 156 39 79 140 hvcurveto
          256 50 callsubr
        </CharString>
        <CharString name="ogonek">
          -544 -224 48 198 -20 hstem
          50 210 vstem
          516 -80 rmoveto
          -39 hlineto
          -53 -21 -65 -43 -53 hhcurveto
          -43 -35 21 49 55 43 44 88 13 hvcurveto
          16 vlineto
          -170 -11 -171 -47 -98 vvcurveto
          -79 125 -11 108 95 87 16 19 51 vhcurveto
          -331 145 rmoveto
          -31 -18 -14 -26 -31 vvcurveto
          -29 26 -36 28 -12 vhcurveto
          -2 -5 rlineto
          -65 8 -37 32 37 vvcurveto
          40 40 29 52 16 vhcurveto
          endchar
        </CharString>
        <CharString name="ograve">
          -88 callsubr
          -322 122 -62 callgsubr
          36 hlineto
          -98 callgsubr
        </CharString>
        <CharString name="one">
          -185 -1 callsubr
          337 52 callgsubr
          868 607 rmoveto
          43 -491 vlineto
          -320 -200 42 -51 259 179 rlineto
          0 -21 -52 -93 vvcurveto
          -281 vlineto
          -80 -49 -29 -59 vhcurveto
          -78 -43 717 43 -78 hlineto
          -59 -49 29 80 hvcurveto
          345 vlineto
          60 49 50 59 vhcurveto
          -321 -564 8 callgsubr
        </CharString>
        <CharString name="onehalf">
          55 -1 -21 43 -21 670 43 callgsubr
          542 204 -124 124 hintmask 11101010
          375 -55 callsubr
          145 -56 callsubr
          872 -262 -59 callsubr
          hintmask 11101001
          -7 callgsubr
        </CharString>
        <CharString name="onequarter">
          55 -1 -21 22 126 544 43 callgsubr
          450 22 callgsubr
          hintmask 11101010
          413 -55 callsubr
          107 -56 callsubr
          904 -250 -61 callsubr
          hintmask 11101001
          40 -300 -40 hlineto
          endchar
        </CharString>
        <CharString name="onesuperior">
          -601 383 -21 360 -20 hstemhm
          180 22 callgsubr
          hintmask 11100000
          477 691 rmoveto
          -73 callgsubr
          hintmask 11010000
          40 -299 -40 hlineto
          endchar
        </CharString>
        <CharString name="ordfeminine">
          -317 308 40 -40 136 166 40 hstemhm
          hintmask 01100000
          451 650 rmoveto
          -299 -40 48 hlineto
          38 16 -22 0 hvcurveto
          14 -17 -147 -185 rlineto
          0 -27 -38 -65 vhcurveto
          -40 235 40 -56 vlineto
          -15 -13 10 15 8 4 10 7 14 hvcurveto
          210 hlineto
          16 -20 rlineto
          8 -11 4 -7 -6 vvcurveto
          hintmask 10100000
          -9 -9 -4 -11 vhcurveto
          -47 -40 393 40 -62 hlineto
          -399 262 rmoveto
          43 hlineto
          208 -262 rlineto
          -42 hlineto
          -209 191 rmoveto
          76 -95 rlineto
          -151 hlineto
          endchar
        </CharString>
        <CharString name="ordmasculine">
          -392 295 43 288 44 hstemhm
          30 233 -148 148 193 52 40 140 hintmask 11101100
          688 483 rmoveto
          102 -128 85 -201 -200 -129 -85 -102 -104 148 -84 181 182 147 84 104 vhcurveto
          -329 143 rmoveto
          77 20 -49 -95 -96 -36 -48 -61 -61 -35 48 96 95 21 49 75 hvcurveto
          -103 hmoveto
          hintmask 11011100
          -88 -25 -53 -57 -61 vvcurveto
          -61 58 -56 83 -26 vhcurveto
          -5 vlineto
          -105 23 -76 58 67 vvcurveto
          67 68 58 113 22 vhcurveto
          292 -147 rmoveto
          -62 -29 -39 -33 -35 vhcurveto
          13 41 9 47 48 vvcurveto
          49 -9 46 -17 45 vhcurveto
          37 -37 29 -41 -62 vvcurveto
          endchar
        </CharString>
        <CharString name="oslash">
          34 -56 -21 55 43 515 44 35 -20 -54 callgsubr
          hintmask 11111011
          401 -77 rmoveto
          36 65 rlineto
          -6 43 45 -4 47 hhcurveto
          -26 callsubr
          130 -134 112 -222 41 hvcurveto
          30 52 rlineto
          -52 hlineto
          -25 -45 rlineto
          6 -46 -49 4 -51 hhcurveto
          -28 callsubr
          -132 154 -112 214 -41 hvcurveto
          -41 -72 rlineto
          223 613 rmoveto
          47 36 -10 -20 26 hvcurveto
          -240 -422 rlineto
          -32 43 -16 65 86 vvcurveto
          170 39 88 140 vhcurveto
          179 -258 rmoveto
          -170 -66 -87 -113 -39 -32 10 20 -27 vhcurveto
          239 421 rlineto
          28 -44 10 -64 -86 vvcurveto
          hintmask 11110111
          -621 1 -103 callgsubr
          endchar
        </CharString>
        <CharString name="otilde">
          11 callgsubr
          -44 111 -34 84 -35 89 -69 69 -25 61 -1 -20 -54 callgsubr
          hintmask 1101001010110000
          -94 callgsubr
          hintmask 1010100101110000
          -102 callsubr
          53 173 rmoveto
          12 callgsubr
          hintmask 1101001010110000
          -79 callsubr
          hintmask 1100010110110000
          -15 callsubr
          hintmask 1101000110110000
          -37 callgsubr
          hintmask 1100100110110000
          1 callgsubr
          hintmask 1101001010110000
          -70 callsubr
          hintmask 1100100110110000
          0 callsubr
          hintmask 1101000110110000
          -71 callgsubr
        </CharString>
        <CharString name="p">
          139 0 43 199 43 230 43 hstem
          269 31 callsubr
          262 72 54 241 vstem
          73 25 callsubr
          -43 106 vlineto
          50 54 callgsubr
          -50 vhcurveto
          -106 -43 729 43 -106 hlineto
          -49 -40 23 65 hvcurveto
          55 vlineto
          5 callgsubr
          -602 -515 -34 callgsubr
          265 242 -52 callgsubr
          endchar
        </CharString>
        <CharString name="paragraph">
          7 -199 43 262 155 319 70 108 43 hstem
          22 66 67 183 192 67 64 259 vstem
          963 801 rmoveto
          -279 -114 -56 -95 -31 hvcurveto
          -201 hlineto
          -216 -100 -135 -136 -136 101 -137 182 76 80 31 56 69 hvcurveto
          -241 -40 callgsubr
          -500 -540 rmoveto
          -88 -37 75 75 81 31 88 95 hvcurveto
          66 -309 hlineto
          -7 -24 -23 -3 -20 hhcurveto
          198 -230 29 callgsubr
          -506 -336 rmoveto
          -70 33 -92 84 -55 vhcurveto
          -3 -10 rlineto
          -114 46 -67 90 91 vvcurveto
          92 67 89 114 46 vhcurveto
          3 -9 rlineto
          -84 -56 -33 -93 -69 vvcurveto
          endchar
        </CharString>
        <CharString name="parenleft">
          -305 -96 -21 854 -20 hstem
          120 63 73 242 vstem
          498 312 rmoveto
          355 186 16 0 vhcurveto
          54 vlineto
          -350 -53 -214 -158 -216 vvcurveto
          -216 214 -158 350 -53 vhcurveto
          54 vlineto
          0 -186 16 359 vvcurveto
          -315 -2 rmoveto
          162 144 125 212 72 vhcurveto
          3 -7 rlineto
          -159 -72 -127 -121 -159 vvcurveto
          -159 127 -121 159 -72 vhcurveto
          -3 -7 rlineto
          -212 72 -144 125 162 vvcurveto
          endchar
        </CharString>
        <CharString name="parenright">
          -310 -96 -21 854 -20 hstem
          301 62 73 243 vstem
          301 308 rmoveto
          -355 -186 -16 0 vhcurveto
          -54 vlineto
          350 53 214 158 216 vvcurveto
          216 -214 158 -350 53 vhcurveto
          -54 vlineto
          0 186 -16 -359 vvcurveto
          135 hmoveto
          -186 -110 -114 -58 -39 vhcurveto
          -7 6 rlineto
          43 41 59 93 199 vvcurveto
          199 -59 93 -43 41 vhcurveto
          7 6 rlineto
          58 -39 110 -114 -186 vvcurveto
          endchar
        </CharString>
        <CharString name="partialdiff">
          34 -22 43 450 44 243 43 hstemhm
          29 349 -246 246 366 94 -55 55 56 211 hintmask 11110011
          775 500 rmoveto
          9 -48 -52 6 -58 hhcurveto
          -341 -247 -141 -158 -134 202 -104 272 411 191 254 216 212 -213 141 -211 -171 -64 -28 -50 -151 hvcurveto
          -22 -105 rlineto
          34 hlineto
          0 108 140 218 113 37 -112 -77 -22 -3 -23 -5 -24 vhcurveto
          -167 -29 rmoveto
          hintmask 11101101
          99 37 -43 -82 -29 -5 -34 -8 -39 hvcurveto
          -147 -31 -79 -76 -109 hhcurveto
          -86 -48 48 95 24 3 26 6 30 hvcurveto
          147 32 55 80 134 hhcurveto
          -476 -258 rmoveto
          -87 82 -67 122 -30 vhcurveto
          -4 -7 rlineto
          -158 32 -106 70 93 vvcurveto
          121 156 92 204 37 vhcurveto
          1 -5 rlineto
          -126 -31 -171 -77 -141 vvcurveto
          707 448 rmoveto
          35 -51 20 -68 -78 vvcurveto
          -161 -81 -152 -103 -93 vhcurveto
          -3 4 rlineto
          79 151 52 187 167 vvcurveto
          31 -1 30 -3 29 vhcurveto
          endchar
        </CharString>
        <CharString name="percent">
          55 -41 callsubr
          hintmask 1010101010010100
          14 callsubr
          hintmask 1011011010010100
          -88 callgsubr
          hintmask 0110100100110100
          -80 callsubr
          hintmask 1010101001001010
          -95 callgsubr
          endchar
        </CharString>
        <CharString name="period">
          -516 -1 28 callgsubr
          501 103 rmoveto
          -93 callgsubr
          endchar
        </CharString>
        <CharString name="periodcentered">
          -516 202 28 callgsubr
          501 306 rmoveto
          -93 callgsubr
          endchar
        </CharString>
        <CharString name="perthousand">
          619 -41 callsubr
          -110 170 -40 -20 callgsubr
          -110 110 hintmask 101010101001010010100000
          14 callsubr
          hintmask 101101101001010010100000
          -88 callgsubr
          hintmask 011010010011010010100000
          -80 callsubr
          hintmask 011010100100101010100000
          -95 callgsubr
          674 1 rmoveto
          -88 callgsubr
          hintmask 101010101001000101010000
          -95 callgsubr
          endchar
        </CharString>
        <CharString name="pi">
          243 -20 46 -26 -23 callsubr
          hstemhm
          -24 callgsubr
          210 2 callsubr
          hintmask 10111110
          606 425 rmoveto
          27 callsubr
          120 -347 hlineto
          -118 81 -70 293 31 31 2 2 28 vhcurveto
          -4 43 rlineto
          -7 -11 -1 -10 hhcurveto
          -52 -43 24 70 hvcurveto
          395 35 callsubr
          -294 vlineto
          hintmask 01111110
          -7 callsubr
          533 hlineto
          -224 43 rmoveto
          41 callgsubr
          547 -461 rmoveto
          -24 10 -27 30 84 vvcurveto
          337 51 vlineto
          endchar
        </CharString>
        <CharString name="plus">
          89 -21 230 49 callsubr
          608 14 callgsubr
          endchar
        </CharString>
        <CharString name="plusminus">
          0 80 280 49 callsubr
          670 14 callgsubr
          230 -590 -18 callgsubr
        </CharString>
        <CharString name="product">
          243 -199 43 914 43 hstem
          -24 callgsubr
          210 2 callsubr
          vstem
          1153 -199 rmoveto
          957 35 callsubr
          -867 337 867 vlineto
          27 callsubr
          120 -957 hlineto
          -434 43 rmoveto
          -51 914 51 hlineto
          496 -914 rmoveto
          914 51 -914 vlineto
          endchar
        </CharString>
        <CharString name="q">
          45 -179 42 117 40 517 41 hstem
          22 51 68 263 347 74 69 238 vstem
          529 -23 rmoveto
          -68 -28 -71 -37 -24 -51 rrcurveto
          -40 421 42 -136 vlineto
          -19 -11 21 26 22 9 27 15 22 hvcurveto
          269 21 218 124 152 vvcurveto
          167 -215 133 -339 -340 -216 -133 -167 -156 223 -127 283 -15 vhcurveto
          -124 298 rmoveto
          171 37 88 137 137 36 -88 -171 -170 -64 -88 -109 -110 -64 88 170 vhcurveto
          153 -319 rmoveto
          -17 -16 -56 -53 -6 -27 rrcurveto
          -47 hlineto
          3 28 77 50 44 21 rrcurveto
          -414 316 rmoveto
          -116 107 -89 149 -38 -25 callsubr
          39 -134 91 121 vvcurveto
          120 134 91 189 38 -19 callgsubr
          -38 -107 -88 -118 vvcurveto
          641 237 rmoveto
          69 -58 43 -83 -95 vvcurveto
          -97 -44 -83 -69 -58 4 callgsubr
          30 73 18 78 83 vvcurveto
          84 -18 79 -29 71 vhcurveto
          endchar
        </CharString>
        <CharString name="question">
          -18 -5 -21 343 45 383 -20 75 -20 hstemhm
          266 74 250 62 -62 134 -8 266 hintmask 11111010
          724 113 8 callsubr
          hintmask 11111101
          258 496 rmoveto
          141 -239 33 -241 -174 -101 -23 -25 -88 vhcurveto
          65 -42 -264 42 vlineto
          92 29 203 117 135 hhcurveto
          38 46 -12 -180 -155 -68 -36 -86 -25 -42 1 1 -31 hvcurveto
          -45 vlineto
          -1 33 21 -1 25 hhcurveto
          296 269 133 159 hvcurveto
          -593 -496 55 callgsubr
          -49 19 -34 38 40 vvcurveto
          40 34 37 49 20 54 callsubr
          263 460 rmoveto
          75 -20 57 -24 38 vhcurveto
          6 8 rlineto
          31 -13 71 -43 -122 vvcurveto
          -136 -71 -48 -31 -14 vhcurveto
          -6 9 rlineto
          24 42 20 64 83 vvcurveto
          endchar
        </CharString>
        <CharString name="questiondown">
          -18 -22 -21 438 45 343 -20 hstemhm
          95 60 65 267 -134 74 -74 134 hintmask 11110010
          811 644 8 callsubr
          -716 -496 rmoveto
          -141 239 -33 241 174 101 23 25 88 vhcurveto
          -65 42 264 -42 vlineto
          -92 -29 -203 -117 -135 hhcurveto
          -38 -46 12 180 155 68 36 86 25 42 -1 -1 31 hvcurveto
          45 vlineto
          1 -33 -21 1 -25 hhcurveto
          -296 -269 -133 -159 hvcurveto
          381 496 55 callgsubr
          hintmask 11110100
          -49 20 -34 37 40 vvcurveto
          40 34 38 49 19 54 callsubr
          -142 -627 rmoveto
          -105 20 -74 39 72 vvcurveto
          102 118 90 163 45 vhcurveto
          4 -8 rlineto
          hintmask 11111000
          -129 -47 -91 -86 -96 vvcurveto
          -62 46 -38 70 -22 vhcurveto
          endchar
        </CharString>
        <CharString name="quotedbl">
          -316 59 callsubr
          331 52 vstem
          361 594 rmoveto
          60 -56 33 -100 -48 callsubr
          51 -126 38 -17 callsubr
          587 -63 -49 callsubr
        </CharString>
        <CharString name="quotedblbase">
          -51 -130 -21 150 28 callgsubr
          91 404 60 404 vstem
          181 103 -84 callsubr
        </CharString>
        <CharString name="quotedblleft">
          -122 44 callsubr
          60 65 -65 404 hintmask 11101000
          174 416 rmoveto
          -81 callgsubr
          -58 17 -25 35 36 vvcurveto
          36 21 40 62 12 -82 callgsubr
          84 -126 rmoveto
          hintmask 11011000
          -66 callsubr
          380 126 rmoveto
          -81 callgsubr
          -58 17 -25 35 36 vvcurveto
          36 21 40 62 12 -82 callgsubr
          84 -126 rmoveto
          hintmask 11100100
          -66 callsubr
          endchar
        </CharString>
        <CharString name="quotedblright">
          -122 40 callsubr
          hstem
          60 404 60 404 vstem
          150 544 -84 callsubr
        </CharString>
        <CharString name="quoteleft">
          -586 44 callsubr
          hintmask 11100000
          174 416 rmoveto
          -81 callgsubr
          -58 17 -25 35 36 vvcurveto
          36 21 40 62 12 -82 callgsubr
          84 -126 rmoveto
          hintmask 11010000
          -66 callsubr
          endchar
        </CharString>
        <CharString name="quoteright">
          -586 40 callsubr
          hstem
          60 404 vstem
          150 544 -83 callgsubr
        </CharString>
        <CharString name="quotesinglbase">
          -515 -130 -21 150 28 callgsubr
          91 404 vstem
          181 103 -83 callgsubr
        </CharString>
        <CharString name="quotesingle">
          -699 59 callsubr
          vstem
          361 594 -49 callsubr
        </CharString>
        <CharString name="r">
          255 0 43 211 48 213 44 hstem
          269 31 callsubr
          276 84 54 270 vstem
          967 254 rmoveto
          146 2 178 18 127 vvcurveto
          141 -176 17 -126 -146 -770 -1 0 vhcurveto
          -43 106 vlineto
          50 -4 callsubr
          -50 vhcurveto
          -106 -43 688 43 -65 hlineto
          -50 -39 23 66 hvcurveto
          63 vlineto
          40 0 18 21 19 26 -34 0 vhcurveto
          171 -219 rlineto
          508 43 -103 hlineto
          -113 141 -83 13 -62 31 -24 20 rlinecurve
          -636 -205 -34 callgsubr
          225 431 rmoveto
          23 18 18 22 vhcurveto
          100 hlineto
          45 91 -28 -87 -72 -71 -26 -71 -68 -66 24 28 hvcurveto
          115 -101 rmoveto
          64 hlineto
          55 -70 54 -70 54 -70 rrcurveto
          -63 hlineto
          135 357 rmoveto
          -46 -33 -46 -39 -17 4 callgsubr
          17 30 5 38 38 vvcurveto
          38 -5 38 -17 30 vhcurveto
          4 3 rlineto
          39 -17 33 -46 -46 vvcurveto
          endchar
        </CharString>
        <CharString name="radical">
          -38 69 callgsubr
          200 43 hstem
          953 801 rmoveto
          -265 -594 -119 180 rlineto
          -15 22 -8 25 21 vvcurveto
          34 19 26 46 vhcurveto
          36 43 -604 -43 59 hlineto
          356 -534 rlineto
          191 hlineto
          346 777 rlineto
          245 43 hlineto
          -690 -777 rmoveto
          -67 hlineto
          -109 165 -109 161 -108 165 rrcurveto
          67 hlineto
          endchar
        </CharString>
        <CharString name="registered">
          -335 192 156 -17 140 -22 142 -17 148 hstemhm
          45 309 -117 117 100 142 -142 276 hintmask 10011001
          -60 callgsubr
          hintmask 10101010
          402 -8 rmoveto
          51 2 63 8 60 vvcurveto
          64 -62 8 -44 vhcurveto
          -322 hlineto
          hintmask 10010110
          -17 36 vlineto
          18 15 -20 -24 hvcurveto
          -138 vlineto
          -32 -15 -12 -18 vhcurveto
          -36 hlineto
          hintmask 01011010
          -17 241 vlineto
          hintmask 10101010
          17 -22 vlineto
          -18 -15 12 32 hvcurveto
          30 vlineto
          19 0 9 9 7 9 -17 0 vhcurveto
          hintmask 01011010
          60 -102 rlineto
          178 hlineto
          hintmask 10101010
          17 -35 vlineto
          -44 75 -30 4 -18 10 -8 8 rlinecurve
          -128 108 rmoveto
          hintmask 01011010
          12 7 9 8 vhcurveto
          36 hlineto
          16 33 -15 -41 -35 -26 -12 -25 -25 -24 11 14 hvcurveto
          endchar
        </CharString>
        <CharString name="ring">
          -736 597 -21 262 -20 hstem
          29 71 callgsubr
          vstem
          138 706 30 callgsubr
          -30 callsubr
          -73 71 -57 86 88 71 57 73 vhcurveto
          -244 hmoveto
          -36 12 -32 19 -22 -49 callgsubr
          -40 18 -28 37 38 vvcurveto
          38 28 37 40 18 -69 callsubr
          -22 -12 -33 -35 vvcurveto
          endchar
        </CharString>
        <CharString name="s">
          -5 -22 41 -2 -21 542 40 -17 33 callsubr
          hintmask 10100110
          95 379 rmoveto
          -32 callsubr
          hlineto
          hintmask 01101010
          -244 45 vlineto
          23 49 rlineto
          hintmask 10100101
          -31 callsubr
          hintmask 10011010
          191 -45 vlineto
          45 callgsubr
          hintmask 10100101
          -43 callgsubr
          hintmask 10101010
          -29 callgsubr
          endchar
        </CharString>
        <CharString name="scaron">
          -5 -22 41 -2 -21 542 40 -17 -20 83 146 -38 33 callsubr
          hintmask 1010100110000000
          95 379 rmoveto
          -32 callsubr
          hlineto
          hintmask 0110101010000000
          -244 45 vlineto
          23 49 rlineto
          hintmask 1010100101000000
          -31 callsubr
          hintmask 1001101010000000
          191 -45 vlineto
          45 callgsubr
          hintmask 1010100101000000
          -43 callgsubr
          hintmask 1010101010000000
          -29 callgsubr
          535 182 -43 callsubr
          hintmask 1010011010000000
          -13 callgsubr
        </CharString>
        <CharString name="section">
          -5 -199 41 823 -20 116 40 hstemhm
          95 57 20 214 37 callsubr
          hintmask 11111100
          1011 398 rmoveto
          -32 callgsubr
          191 -45 hlineto
          45 callgsubr
          -12 callsubr
          -99 128 -56 143 -40 hvcurveto
          -10 vlineto
          -132 -9 -139 -38 -148 -32 callsubr
          -244 45 hlineto
          23 49 rlineto
          -11 callgsubr
          116 -118 54 -132 32 hvcurveto
          10 vlineto
          155 21 95 59 108 vvcurveto
          -839 -133 -4 callgsubr
          hintmask 11111010
          -51 callgsubr
          -29 callgsubr
          7 400 -52 callsubr
          -29 callgsubr
          hintmask 11111100
          577 -384 rmoveto
          -33 -74 -6 -64 -43 -175 7 62 40 46 10 58 22 230 -18 -62 vhcurveto
          endchar
        </CharString>
        <CharString name="semicolon">
          -515 -130 -21 150 -21 656 -20 hstemhm
          91 404 -314 314 hintmask 11101000
          181 103 rmoveto
          -103 callsubr
          116 126 rmoveto
          hintmask 11110000
          -92 callgsubr
          211 279 rmoveto
          -93 callgsubr
          endchar
        </CharString>
        <CharString name="seven">
          -4 0 43 268 44 250 45 hstem
          48 338 54 212 vstem
          48 650 rmoveto
          -250 28 vlineto
          197 176 223 25 100 hhcurveto
          33 19 -3 0 0 -113 -106 -88 -158 hvcurveto
          -184 -44 161 hlineto
          -46 -92 -35 -107 -112 vvcurveto
          483 43 -148 hlineto
          -3 26 -2 23 24 vvcurveto
          74 15 65 23 56 vhcurveto
          169 44 -149 hlineto
          89 169 158 81 0 vvcurveto
          92 45 hlineto
          -910 -129 rmoveto
          -41 -31 rlineto
          115 41 vlineto
          301 -562 rmoveto
          -54 hlineto
          312 305 265 0 vhcurveto
          54 hlineto
          0 -305 -266 -311 vvcurveto
          endchar
        </CharString>
        <CharString name="six">
          -13 -1 -21 395 48 209 40 hstemhm
          57 55 56 226 316 53 48 132 -132 229 hintmask 11111101
          909 607 rmoveto
          0 -126 63 -213 -275 -238 -141 -208 -207 244 -136 240 240 259 72 167 135 -194 69 -158 -159 -135 -63 0 164 53 108 153 152 157 -154 0 vhcurveto
          34 167 -34 hlineto
          -516 -325 rmoveto
          0 101 55 90 90 36 -87 -80 -55 -1 -134 -161 -148 -7 134 126 vhcurveto
          -71 308 rmoveto
          0 -154 -94 -169 vvcurveto
          -169 134 -95 0 46 callgsubr
          0 -187 72 197 vvcurveto
          197 207 72 0 vhcurveto
          392 -203 rmoveto
          0 100 -33 -144 vvcurveto
          hintmask 11111110
          -144 -98 -39 0 vhcurveto
          -3 4 rlineto
          0 53 53 126 vvcurveto
          126 -54 47 0 vhcurveto
          endchar
        </CharString>
        <CharString name="slash">
          65 callsubr
          132 -52 rmoveto
          400 722 rlineto
          -82 hlineto
          -400 -722 rlineto
          endchar
        </CharString>
        <CharString name="space">
          -660 endchar
        </CharString>
        <CharString name="sterling">
          -1 -22 54 -54 83 124 42 108 50 234 52 hstemhm
          45 96 10 67 43 215 -47 59 48 236 -236 434 hintmask 1011111011000000
          65 335 rmoveto
          199 hlineto
          43 -40 47 -37 33 -37 rrcurveto
          hintmask 1011111100100000
          4 -21 -21 2 -21 hhcurveto
          -182 -97 -73 -71 -104 206 -1 85 109 182 3 75 90 hvcurveto
          -42 97 89 -36 67 hhcurveto
          98 26 72 55 35 -11 40 -20 hvcurveto
          -29 -3 -119 -116 hhcurveto
          -58 -56 11 17 -54 hvcurveto
          16 23 9 29 34 vvcurveto
          63 -33 52 -44 45 vhcurveto
          163 50 -218 hlineto
          hintmask 1011111010100000
          -79 65 -85 49 50 vvcurveto
          32 23 38 92 93 96 -26 -140 141 vhcurveto
          49 218 hlineto
          hintmask 0111111101000000
          -48 -61 hlineto
          0 -154 61 -191 -192 -234 -25 -138 -43 26 -41 37 -39 vhcurveto
          -149 hlineto
          259 -200 rmoveto
          29 33 -5 -8 34 hvcurveto
          5 -13 4 -12 -12 vvcurveto
          -67 -98 -36 -81 -58 -51 19 38 56 83 40 100 vhcurveto
          72 -149 rmoveto
          32 13 60 35 76 112 -270 148 103 vvcurveto
          50 43 25 23 9 46 callsubr
          -12 -13 -14 -24 -30 -81 275 -140 -150 vvcurveto
          hintmask 1011111100100000
          -76 -59 -49 -79 -9 vhcurveto
          endchar
        </CharString>
        <CharString name="summation">
          66 -199 43 727 -20 207 43 hstem
          564 405 rmoveto
          38 -39 -269 -522 rlineto
          -57 hlineto
          -58 914 rmoveto
          235 -240 rlineto
          19 -20 18 -24 -23 vvcurveto
          -14 -4 -15 -10 -19 vhcurveto
          -185 -360 rlineto
          -177 -91 -13 -22 -61 hhcurveto
          -76 -43 1076 63 callsubr
          hlineto
          -50 callsubr
          -67 hlineto
          244 423 -481 491 rlineto
          306 hlineto
          247 135 -100 -87 65 hvcurveto
          63 callgsubr
          -1076 -43 hlineto
          endchar
        </CharString>
        <CharString name="t">
          -152 21 callgsubr
          56 317 -63 31 callgsubr
          vstem
          677 515 rmoveto
          51 145 -205 0 hvcurveto
          36 hlineto
          -14 248 rlineto
          -832 hlineto
          -14 -248 rlineto
          36 hlineto
          0 145 205 52 20 8 -16 -23 vhcurveto
          -344 57 callsubr
          -49 vhcurveto
          -106 -43 728 51 callgsubr
          23 66 hvcurveto
          344 vlineto
          23 9 16 21 vhcurveto
          -255 -472 rmoveto
          -49 472 49 hlineto
          endchar
        </CharString>
        <CharString name="thorn">
          139 0 43 77 43 230 43 79 43 hstem
          -24 callgsubr
          262 72 54 241 vstem
          646 163 -52 callgsubr
          -388 -214 rmoveto
          5 callgsubr
          -282 hlineto
          -30 -14 16 40 hvcurveto
          23 196 43 -729 -43 106 vlineto
          -42 callgsubr
          -196 hlineto
          -224 hmoveto
          41 callgsubr
          endchar
        </CharString>
        <CharString name="three">
          -85 -22 40 612 40 hstemhm
          85 218 295 54 -14 266 -203 203 -169 239 hintmask 11101000
          592 350 rmoveto
          179 17 133 61 71 vvcurveto
          87 -164 84 -259 -165 -94 -41 -46 -102 vhcurveto
          42 -35 -191 35 vlineto
          131 64 137 65 121 hhcurveto
          hintmask 11110100
          111 45 -65 -68 -74 -58 -52 -98 -73 -66 15 73 hvcurveto
          -34 -223 34 hlineto
          68 75 30 89 vhcurveto
          hintmask 11101000
          105 66 -64 -95 -87 -66 -70 -108 -167 -169 87 108 -41 hvcurveto
          -35 -207 35 43 hlineto
          -39 90 146 -32 158 hhcurveto
          hintmask 11110010
          272 221 88 107 93 -145 68 -237 16 hvcurveto
          63 -313 rmoveto
          25 42 7 51 40 vvcurveto
          40 -7 50 -25 42 vhcurveto
          4 5 rlineto
          45 -36 31 -50 -51 vvcurveto
          -51 -32 -51 -44 -35 vhcurveto
          hintmask 11110100
          42 468 rmoveto
          -43 -31 -45 -46 -29 vhcurveto
          -5 3 rlineto
          20 35 13 40 39 vvcurveto
          39 -13 40 -20 35 58 callgsubr
          46 -29 31 -45 -43 vvcurveto
          endchar
        </CharString>
        <CharString name="threequarters">
          55 -1 -21 22 126 446 -20 104 -20 27 -20 27 -20 34 -20 hstemhm
          366 152 -152 191 260 22 callgsubr
          hintmask 1110010101000000
          443 -55 callsubr
          127 613 rmoveto
          hintmask 1110101101000000
          26 callgsubr
          hintmask 1111001011000000
          -59 callgsubr
          hintmask 1111001101000000
          -64 callsubr
          755 -430 -61 callsubr
          hintmask 1110010100100000
          40 -300 -40 hlineto
          endchar
        </CharString>
        <CharString name="threesuperior">
          -546 371 -21 220 -20 179 -20 hstemhm
          345 152 -152 191 hintmask 11101000
          497 636 rmoveto
          26 callgsubr
          -59 callgsubr
          hintmask 11110000
          -64 callsubr
          endchar
        </CharString>
        <CharString name="tilde">
          -372 613 -3 callgsubr
          hintmask 10010000
          617 693 rmoveto
          -28 -33 -54 -18 -46 -79 callsubr
          hintmask 00101000
          -15 callsubr
          hintmask 10001000
          -37 callgsubr
          hintmask 01001000
          1 callgsubr
          hintmask 10010000
          -70 callsubr
          hintmask 01001000
          0 callsubr
          hintmask 10001000
          -71 callgsubr
        </CharString>
        <CharString name="trademark">
          458 308 40 269 40 hstemhm
          40 190 -40 210 -130 130 775 210 -129 129 hintmask 11101100
          416 617 rmoveto
          30 89 -121 0 hvcurveto
          24 161 -519 -161 16 hlineto
          0 88 121 31 vhcurveto
          hintmask 11010100
          10 5 -7 -11 hvcurveto
          -201 vlineto
          -37 -23 -13 -30 vhcurveto
          -66 -40 448 40 -66 hlineto
          -30 -23 13 37 hvcurveto
          201 vlineto
          11 5 7 11 vhcurveto
          hintmask 11101010
          -146 -269 rmoveto
          -40 270 40 hlineto
          945 hmoveto
          41 -270 -41 hlineto
          313 270 rmoveto
          39 -357 vlineto
          -87 -133 -156 133 rlineto
          -340 -40 hlineto
          85 85 -42 -67 hvcurveto
          -46 vlineto
          -84 -95 -30 -68 vhcurveto
          -40 367 40 vlineto
          -68 -95 30 84 hvcurveto
          55 vlineto
          195 -165 rlineto
          28 hlineto
          hintmask 11101100
          52 79 50 79 51 79 rrcurveto
          -192 vlineto
          -36 -23 -13 -28 vhcurveto
          -67 -40 471 40 -90 hlineto
          -29 -24 13 36 hvcurveto
          186 vlineto
          25 24 10 29 vhcurveto
          -429 -209 rmoveto
          -8 hlineto
          -251 208 rlineto
          61 hlineto
          198 -164 rlineto
          endchar
        </CharString>
        <CharString name="two">
          -101 0 42 588 40 hstem
          593 55 47 257 vstem
          913 148 rmoveto
          -211 -63 -237 -42 -371 -1 rrcurveto
          5 vlineto
          300 69 558 163 195 vvcurveto
          158 -303 38 -158 -189 -109 -48 -42 -73 vhcurveto
          54 -35 -272 35 vlineto
          128 24 151 140 155 hhcurveto
          31 112 -13 -150 -203 -373 -147 -170 -51 hvcurveto
          -66 898 230 -35 vlineto
          -315 380 rmoveto
          0 97 -57 -89 vvcurveto
          -168 -171 -47 0 vhcurveto
          -2 5 rlineto
          47 37 79 80 96 vvcurveto
          97 -53 43 0 vhcurveto
          endchar
        </CharString>
        <CharString name="twosuperior">
          -555 383 -21 197 -20 190 -20 hstemhm
          320 204 -124 124 hintmask 11110000
          494 447 -59 callsubr
          hintmask 11101000
          -7 callgsubr
        </CharString>
        <CharString name="u">
          56 callgsubr
          hstem
          7 callsubr
          vstem
          -100 callgsubr
          endchar
        </CharString>
        <CharString name="uacute">
          -77 callgsubr
          482 3 callsubr
          hintmask 10111111
          -101 callgsubr
        </CharString>
        <CharString name="ucircumflex">
          56 callgsubr
          66 -2 callgsubr
          7 callsubr
          hintmask 11100111
          -100 callgsubr
          169 255 -91 callsubr
          hintmask 11011111
          -75 callsubr
        </CharString>
        <CharString name="udieresis">
          56 callgsubr
          24 callsubr
          165 63 -30 274 -195 225 -225 414 -37 274 -117 61 hintmask 1111010010000000
          -100 callgsubr
          62 callgsubr
          700 15 callsubr
          -105 callsubr
          hintmask 1111001010000000
          -104 callgsubr
          endchar
        </CharString>
        <CharString name="ugrave">
          -77 callgsubr
          188 44 callgsubr
          hintmask 10111111
          -96 callgsubr
        </CharString>
        <CharString name="underscore">
          -100 -100 80 hstem
          910 -20 61 callsubr
        </CharString>
        <CharString name="v">
          -38 69 callgsubr
          hstem
          1085 25 callsubr
          -445 -43 45 hlineto
          88 59 -53 -56 -20 -8 -22 -16 -18 hvcurveto
          -110 -117 -156 158 rlineto
          -17 17 69 callsubr
          21 32 26 vhcurveto
          26 42 callgsubr
          482 534 rlineto
          45 hlineto
          -510 -454 rmoveto
          -34 -37 -441 491 rlineto
          67 hlineto
          endchar
        </CharString>
        <CharString name="w">
          615 69 callgsubr
          hstem
          1293 25 callsubr
          -43 45 vlineto
          88 59 -54 -55 -20 -7 -22 -17 -18 hvcurveto
          -109 -117 -156 158 rlineto
          -18 18 69 callsubr
          21 31 26 vhcurveto
          27 43 -604 -43 58 hlineto
          130 -145 -130 -144 -156 161 rlineto
          -17 17 69 callsubr
          20 32 26 vhcurveto
          27 42 callgsubr
          310 344 311 -344 rlineto
          32 hlineto
          484 534 rlineto
          44 43 hlineto
          -1197 -534 rmoveto
          -443 491 rlineto
          68 hlineto
          407 -454 rlineto
          621 -37 rmoveto
          -443 491 rlineto
          69 hlineto
          407 -454 rlineto
          endchar
        </CharString>
        <CharString name="x">
          66 -36 callgsubr
          72 callsubr
          hintmask 11000000
          1093 43 rmoveto
          -50 -64 23 67 -66 hvcurveto
          -61 61 -60 63 -62 64 193 125 rcurveline
          34 22 82 46 65 1 rrcurveto
          32 hlineto
          hintmask 10100000
          42 -420 vlineto
          hintmask 11000000
          -42 19 vlineto
          19 30 -18 -30 -22 -20 -28 -53 -38 hvcurveto
          -22 -16 -79 82 rlineto
          -11 11 -10 17 15 vvcurveto
          15 10 12 28 vhcurveto
          18 43 -589 -43 55 hlineto
          49 84 -43 -49 48 hvcurveto
          163 -167 -229 -148 rlineto
          -20 -31 -81 -45 -70 hhcurveto
          -31 -43 484 43 -83 hlineto
          -19 -31 16 30 22 22 32 51 34 hvcurveto
          58 38 103 -105 rlineto
          12 -12 7 -15 -12 vvcurveto
          -16 -12 -12 -28 vhcurveto
          -37 -43 623 43 hlineto
          -896 472 rmoveto
          68 hlineto
          460 -472 rlineto
          -68 hlineto
          endchar
        </CharString>
        <CharString name="y">
          5 21 callgsubr
          362 31 callgsubr
          vstem
          -89 callsubr
          endchar
        </CharString>
        <CharString name="yacute">
          5 0 43 472 -37 callsubr
          362 31 callgsubr
          hintmask 11011110
          -89 callsubr
          260 373 -44 callgsubr
        </CharString>
        <CharString name="ydieresis">
          5 -36 callgsubr
          24 callsubr
          192 274 -104 31 callgsubr
          -51 274 hintmask 11101100
          -89 callsubr
          hintmask 11110010
          448 437 -86 callsubr
          -105 callgsubr
        </CharString>
        <CharString name="yen">
          199 0 43 154 50 78 50 232 43 hstem
          427 -9 callsubr
          vstem
          1157 197 rmoveto
          50 -339 44 vlineto
          47 34 rlineto
          292 50 -223 hlineto
          323 232 rlineto
          66 43 -523 -43 50 hlineto
          -74 callgsubr
          234 -232 rlineto
          -234 -50 284 hlineto
          56 -55 rlineto
          -23 -340 -50 340 -46 -47 callgsubr
          46 vlineto
          -258 122 rmoveto
          -276 7 callgsubr
          93 hlineto
          endchar
        </CharString>
        <CharString name="z">
          -91 21 callgsubr
          -58 callgsubr
          endchar
        </CharString>
        <CharString name="zcaron">
          -91 -36 callgsubr
          66 146 -38 -20 hstemhm
          hintmask 11100000
          -58 callgsubr
          498 581 -43 callsubr
          hintmask 11010000
          -13 callgsubr
        </CharString>
        <CharString name="zero">
          -72 -22 41 610 41 hstemhm
          27 335 -240 240 314 61 57 217 hintmask 11011100
          1011 326 rmoveto
          190 -190 154 -302 -301 -191 -154 -190 -193 220 -155 272 272 220 155 193 vhcurveto
          -492 303 rmoveto
          124 33 -104 -201 -200 -59 -105 -98 -99 -58 105 200 201 33 104 124 hvcurveto
          -397 -304 rmoveto
          -121 73 -102 106 -58 vhcurveto
          -2 -5 rlineto
          -139 56 -93 107 -14 callgsubr
          93 107 139 56 vhcurveto
          2 -5 rlineto
          -106 -58 -73 -102 -122 vvcurveto
          672 hmoveto
          -108 -46 -108 -55 -59 vhcurveto
          hintmask 11101100
          -5 3 rlineto
          32 80 17 91 101 vvcurveto
          102 -17 91 -32 80 58 callgsubr
          55 -59 46 -108 -109 vvcurveto
          endchar
        </CharString>
      <CharString index="0">
        1322 325 rmoveto
        -69 callgsubr
        -192 291 -155 359 -26 callgsubr
        vhcurveto
        -650 304 rmoveto
        64 callgsubr
        -105 -65 callgsubr
        -10 callgsubr
        hvcurveto
        -288 -589 -106 callgsubr
        return
      </CharString>
      <CharString index="1">
        rmoveto
        -184 56 -124 106 -14 callgsubr
        126 107 -68 callgsubr
        -106 -120 vvcurveto
        -120 95 -105 141 -56 vhcurveto
        650 47 callsubr
        -106 -51 -103 -75 -69 vhcurveto
        -6 2 rlineto
        34 84 23 98 94 vvcurveto
        94 -23 98 -34 84 vhcurveto
        6 2 rlineto
        75 -69 51 -103 -106 vvcurveto
        return
      </CharString>
      <CharString index="2">
        -105 callsubr
        -104 callgsubr
        endchar
      </CharString>
      <CharString index="3">
        -40 17 -29 35 38 vvcurveto
        38 29 35 40 17 -69 callsubr
        -21 -12 -30 -36 vvcurveto
        return
      </CharString>
      <CharString index="4">
        rmoveto
        -119 107 -92 149 -39 -25 callsubr
        40 -134 94 124 vvcurveto
        123 134 94 189 39 -19 callgsubr
        -40 -107 -90 -121 vvcurveto
        641 244 rmoveto
        69 -59 43 -87 -97 vvcurveto
        -99 -44 -87 -69 -59 4 callgsubr
        30 75 18 80 86 vvcurveto
        87 -18 81 -29 73 vhcurveto
        return
      </CharString>
      <CharString index="5">
        697 -55 callgsubr
        -1031 41 callsubr
        50 39 0 callgsubr
        -98 callsubr
        -368 -38 callsubr
        return
      </CharString>
      <CharString index="6">
        -54 callsubr
        -99 callsubr
      </CharString>
      <CharString index="7">
        650 25 callsubr
        -43 vlineto
        52 109 -17 -145 hvcurveto
        -206 vlineto
        -68 -35 -61 -178 -70 -26 41 82 vhcurveto
        286 vlineto
        67 41 21 48 vhcurveto
        16 43 -567 -43 36 hlineto
        48 41 -21 -67 hvcurveto
        -276 vlineto
        -69 19 -104 391 287 10 117 76 vhcurveto
        182 vlineto
        145 86 17 84 vhcurveto
        43 vlineto
        -765 -43 rmoveto
        -439 vlineto
        0 -49 14 87 vvcurveto
        338 vlineto
        return
      </CharString>
      <CharString index="8">
        1031 186 -29 hlineto
        -44 callsubr
        -77 hlineto
        -51 -17 34 49 hvcurveto
        67 vlineto
        36 14 37 57 73 103 -36 -64 28 vhcurveto
        37 264 -37 hlineto
        -59 -28 -103 -49 -73 hhcurveto
        -57 -14 38 35 hvcurveto
        40 vlineto
        47 34 33 58 return
      </CharString>
      <CharString index="9">
        -84 callgsubr
        90 21 -86 callgsubr
      </CharString>
      <CharString index="10">
        -50 callsubr
        -25 hlineto
        -80 -6 56 88 hvcurveto
        36 vlineto
        42 20 47 68 87 123 -42 -76 33 vhcurveto
        37 305 -37 hlineto
        -71 -33 -123 -56 -87 hhcurveto
        -78 -10 61 41 hvcurveto
        34 vlineto
        57 43 40 70 return
      </CharString>
      <CharString index="11">
        36 vlineto
        -98 callgsubr
      </CharString>
      <CharString index="12">
        -191 -162 rmoveto
        -50 34 -70 63 -40 vhcurveto
        -1 -3 rlineto
        -86 33 -50 64 66 vvcurveto
        66 50 64 86 33 vhcurveto
        1 -3 rlineto
        -63 -40 -34 -70 -50 vvcurveto
        354 -1 rmoveto
        -58 -27 -50 -33 -25 vhcurveto
        -3 2 rlineto
        15 32 8 53 46 vvcurveto
        46 -8 53 -15 32 vhcurveto
        3 2 rlineto
        33 -25 27 -50 -58 vvcurveto
        return
      </CharString>
      <CharString index="13">
        -95 callsubr
        -48 callgsubr
        return
      </CharString>
      <CharString index="14">
        -79 callgsubr
        -321 -94 callsubr
        return
      </CharString>
      <CharString index="15">
        -114 -92 -57 -69 -69 92 -56 114 36 33 7 10 30 hvcurveto
        -95 -19 -169 -14 -79 hhcurveto
        -37 vlineto
        255 111 117 104 84 -71 75 -127 hvcurveto
        return
      </CharString>
      <CharString index="16">
        694 -27 callsubr
        121 -80 callgsubr
        -121 hlineto
        -60 -49 28 80 -28 callgsubr
        return
      </CharString>
      <CharString index="17">
        65 28 -18 -36 30 hvcurveto
        25 -31 -257 -327 rlineto
        -1 -107 -151 -111 vhcurveto
        -43 436 43 -93 vlineto
        -43 -32 25 44 23 return
      </CharString>
      <CharString index="18">
        800 -9 callgsubr
        50 vlineto
        -74 callgsubr
        340 -337 rlineto
        -119 -47 callgsubr
        140 vlineto
        439 316 rlineto
        66 43 hlineto
        -763 -344 rmoveto
        -263 7 callgsubr
        79 hlineto
        return
      </CharString>
      <CharString index="19">
        106 -105 85 -168 -165 -106 -85 -106 -107 122 -85 149 151 122 85 107 vhcurveto
        -273 162 rmoveto
        66 17 -55 -108 -107 -31 -56 -52 -50 -31 56 107 108 17 55 64 hvcurveto
        return
      </CharString>
      <CharString index="20">
        -6 callsubr
        -41 123 25 callgsubr
        -57 callgsubr
        hintmask 11011111
        -107 callgsubr
        return
      </CharString>
      <CharString index="21">
        rmoveto
        -104 5 -44 49 -17 25 rrcurveto
        64 hlineto
        18 -37 53 -28 30 -10 rrcurveto
        endchar
      </CharString>
      <CharString index="22">
        -39 callsubr
        -107 callgsubr
        return
      </CharString>
      <CharString index="23">
        -156 -53 40 70 -50 hvcurveto
        -291 hlineto
        0 24 -99 124 -29 vhcurveto
        return
      </CharString>
      <CharString index="24">
        rmoveto
        -103 callsubr
        116 -85 callsubr
        endchar
      </CharString>
      <CharString index="25">
        vhcurveto
        3 -4 rlineto
        -22 -21 -15 -30 -33 vvcurveto
        return
      </CharString>
      <CharString index="26">
        -33 15 -30 22 19 callgsubr
        -4 rlineto
        return
      </CharString>
      <CharString index="27">
        43 -851 -43 122 hlineto
        60 49 -19 callsubr
        -80 -49 -28 -47 callsubr
        return
      </CharString>
      <CharString index="28">
        69 -92 57 -113 -72 callsubr
        vhcurveto
        return
      </CharString>
      <CharString index="29">
        55 callsubr
        145 82 -20 48 -20 hstemhm
        hintmask 11101100
        -106 callsubr
        return
      </CharString>
      <CharString index="30">
        -63 -22 40 497 -37 callsubr
        7 callsubr
        hintmask 11011111
        -100 callgsubr
        return
      </CharString>
      <CharString index="31">
        1009 -9 callgsubr
        vlineto
        99 129 -24 -173 -23 -15 -4 -8 -18 -76 48 0 hvcurveto
        -348 219 rlineto
        -749 -43 hlineto
        164 38 callgsubr
        -173 -182 -61 9 callsubr
        61 173 hvcurveto
        46 vlineto
        56 25 14 25 25 25 -14 0 vhcurveto
        696 -421 rlineto
        90 452 hlineto
        173 129 24 99 vhcurveto
        43 vlineto
        -318 -615 rmoveto
        -855 517 rlineto
        55 27 vlineto
        828 -500 rlineto
        return
      </CharString>
      <CharString index="32">
        -91 callsubr
        -75 callsubr
      </CharString>
      <CharString index="33">
        64 35 -32 -41 -35 -24 -42 -48 -39 hvcurveto
        -59 -48 -129 128 rlineto
        -21 20 -9 24 19 vvcurveto
        26 18 20 30 vhcurveto
        28 43 -749 -43 101 hlineto
        return
      </CharString>
      <CharString index="34">
        31 -273 vlineto
        -177 -111 27 -33 134 93 rlineto
        0 -8 -36 -35 vvcurveto
        -152 vlineto
        -41 -24 -15 -30 vhcurveto
        -46 -30 397 30 -45 hlineto
        -31 -25 15 41 hvcurveto
        187 vlineto
        31 25 25 31 vhcurveto
        -212 hmoveto
        return
      </CharString>
      <CharString index="35">
        rmoveto
        27 callsubr
        106 43 -729 -43 106 hlineto
        -42 callgsubr
        -106 hlineto
        -49 -41 22 66 hvcurveto
        -224 -88 rmoveto
        41 callgsubr
        endchar
      </CharString>
      <CharString index="36">
        130 50 -49 157 hhcurveto
        139 67 120 53 5 hvcurveto
        endchar
      </CharString>
      <CharString index="37">
        rmoveto
        133 146 rlineto
        -87 hlineto
        -103 -112 -104 112 rlineto
        -297 hlineto
        134 -146 rlineto
        return
      </CharString>
      <CharString index="38">
        191 -63 callsubr
        -191 return
      </CharString>
      <CharString index="39">
        186 55 vhcurveto
        1 -4 rlineto
        -143 -56 -97 return
      </CharString>
      <CharString index="40">
        30 callgsubr
        vhcurveto
        hintmask 11010111
        -30 callsubr
        vhcurveto
        hintmask 11001111
        -73 71 -57 86 88 71 57 73 vhcurveto
        -244 hmoveto
        -36 12 -32 19 -22 -49 callgsubr
        -40 18 -28 37 38 vvcurveto
        38 28 37 40 18 -69 callsubr
        -22 -12 -33 -35 vvcurveto
        endchar
      </CharString>
      <CharString index="41">
        -106 callgsubr
        endchar
      </CharString>
      <CharString index="42">
        -200 -201 -76 -104 -131 -130 -77 104 201 return
      </CharString>
      <CharString index="43">
        -6 callgsubr
        0 102 2 callgsubr
        -24 callgsubr
        hintmask 11011110
        -83 callsubr
        return
      </CharString>
      <CharString index="44">
        -238 61 -109 62 93 vvcurveto
        22 5 30 8 18 vhcurveto
        7 -1 25 -134 188 -60 187 -44 rlinecurve
        207 -50 193 -11 -138 vvcurveto
        -23 vlineto
        return
      </CharString>
      <CharString index="45">
        rmoveto
        -18 78 183 0 87 hhcurveto
        54 return
      </CharString>
      <CharString index="46">
        273 -250 rlineto
        247 vlineto
        -112 104 112 103 rlineto
        87 vlineto
        -273 -249 rlineto
        235 -119 rmoveto
        -62 vlineto
        -169 153 34 31 rlineto
        return
      </CharString>
      <CharString index="47">
        45 457 rmoveto
        -146 154 -119 189 189 153 119 146 146 -153 119 -189 -189 -154 -119 -146 vhcurveto
        35 hmoveto
        124 139 107 169 169 138 -107 -124 -124 -138 -107 -169 -169 -139 107 124 vhcurveto
        return
      </CharString>
      <CharString index="48">
        72 34 75 31 63 hhcurveto
        57 24 -30 -36 -38 -31 -27 -50 -38 -33 8 39 hvcurveto
        -27 -126 27 hlineto
        36 38 17 47 55 34 -35 -49 -46 -35 -36 -56 -89 -91 47 59 -22 vhcurveto
        -26 -122 27 24 hlineto
        -21 48 79 -15 84 hhcurveto
        149 123 49 60 48 -70 37 -113 12 hvcurveto
        return
      </CharString>
      <CharString index="49">
        965 515 rmoveto
        43 -861 -197 28 vlineto
        55 55 103 99 205 hhcurveto
        42 hlineto
        -461 -472 rlineto
        -22 -43 898 197 -28 hlineto
        -67 -65 -89 -87 -193 hhcurveto
        -94 hlineto
        462 472 rlineto
        -787 -472 rmoveto
        459 472 rlineto
        71 hlineto
        -459 -472 rlineto
        return
      </CharString>
      <CharString index="50">
        22 54 73 316 414 81 75 287 return
      </CharString>
      <CharString index="51">
        rmoveto
        -104 70 -80 87 -49 vhcurveto
        -2 -4 rlineto
        -113 46 -97 86 105 vvcurveto
        106 97 86 113 46 vhcurveto
        2 -4 rlineto
        -87 -49 -70 -80 -105 vvcurveto
        return
      </CharString>
      <CharString index="52">
        515 rmoveto
        209 115 -83 -74 54 hvcurveto
        29 200 return
      </CharString>
      <CharString index="53">
        -25 callgsubr
        358 63 69 238 return
      </CharString>
      <CharString index="54">
        rmoveto
        -65 564 65 hlineto
        return
      </CharString>
      <CharString index="55">
        rmoveto
        -22 -18 18 22 hvcurveto
        149 vlineto
        23 18 18 22 vhcurveto
        86 hlineto
        45 91 -28 -87 -85 -91 -30 -45 hvcurveto
        262 115 rmoveto
        -46 -33 -46 -39 -17 4 callgsubr
        17 30 5 38 38 vvcurveto
        38 -5 38 -17 30 vhcurveto
        4 3 rlineto
        39 -17 33 -46 -46 vvcurveto
        return
      </CharString>
      <CharString index="56">
        174 -40 164 -13 -114 -3 -5 1 -3 vvcurveto
        -49 55 -60 15 -126 29 rrcurveto
        return
      </CharString>
      <CharString index="57">
        -29 -97 -104 -207 hhcurveto
        -122 -41 48 113 hvcurveto
        235 vlineto
        69 29 53 97 133 135 -129 -57 41 vhcurveto
        45 return
      </CharString>
      <CharString index="58">
        vhcurveto
        -3 -3 rlineto
        return
      </CharString>
      <CharString index="59">
        -113 -66 87 170 170 39 88 140 hvcurveto
        return
      </CharString>
      <CharString index="60">
        vlineto
        -79 -48 -29 -21 callgsubr
        29 79 hvcurveto
        return
      </CharString>
      <CharString index="61">
        52 -17 40 -24 -42 vvcurveto
        -39 -52 -32 -40 -10 vhcurveto
        -3 6 rlineto
        28 13 17 32 30 vvcurveto
        33 -15 25 -31 19 vhcurveto
        endchar
      </CharString>
      <CharString index="62">
        62 callsubr
        -22 18 callsubr
        993 250 -31 hlineto
        -173 -122 -134 -35 -84 hhcurveto
        -71 -19 41 48 hvcurveto
        return
      </CharString>
      <CharString index="63">
        -77 callsubr
        hintmask 10111110
        -101 callgsubr
      </CharString>
      <CharString index="64">
        -12 callsubr
        hvcurveto
        77 63 -52 callsubr
        return
      </CharString>
      <CharString index="65">
        17 callsubr
        -7 callsubr
        729 43 return
      </CharString>
      <CharString index="66">
        0 43 564 43 return
      </CharString>
      <CharString index="67">
        vlineto
        -80 -50 -28 -59 -12 -13 1 1 -8 vhcurveto
        -5 -40 rlineto
        -3 33 35 -2 36 37 callgsubr
        631 vlineto
        80 50 28 59 12 13 -1 -1 8 vhcurveto
        5 40 rlineto
        3 -33 -35 2 -36 hhcurveto
        return
      </CharString>
      <CharString index="68">
        130 82 26 28 57 hvcurveto
        -708 247 -56 callgsubr
        endchar
      </CharString>
      <CharString index="69">
        29 -21 541 -20 hstem
        258 vmoveto
        -61 callgsubr
        return
      </CharString>
      <CharString index="70">
        29 46 6 9 28 hvcurveto
        40 89 rmoveto
        return
      </CharString>
      <CharString index="71">
        0 -23 callsubr
        return
      </CharString>
      <CharString index="72">
        10 callsubr
        -51 callsubr
        return
      </CharString>
      <CharString index="73">
        rmoveto
        472 51 -472 vlineto
        return
      </CharString>
      <CharString index="74">
        -50 163 125 -29 187 hhcurveto
        337 185 65 162 hvcurveto
        320 -735 -90 139 vvcurveto
        42 56 12 71 175 302 -121 -69 48 vhcurveto
        47 hlineto
        return
      </CharString>
      <CharString index="75">
        270 -625 -69 112 vvcurveto
        40 46 10 58 120 226 -71 -97 100 vhcurveto
        44 return
      </CharString>
      <CharString index="76">
        vlineto
        83 34 62 117 157 155 -121 -98 52 vhcurveto
        48 239 -48 -50 hlineto
        return
      </CharString>
      <CharString index="77">
        139 -1 callsubr
        21 callsubr
        vstem
        692 -27 callsubr
        167 43 -895 23 callgsubr
        -51 -59 hvcurveto
        return
      </CharString>
      <CharString index="78">
        -308 71 -144 56 93 vvcurveto
        16 3 17 10 18 vhcurveto
        return
      </CharString>
      <CharString index="79">
        hvcurveto
        -258 -27 callgsubr
        return
      </CharString>
      <CharString index="80">
        -108 -53 callgsubr
        return
      </CharString>
      <CharString index="81">
        359 291 155 192 return
      </CharString>
      <CharString index="82">
        hstemhm
        22 371 -263 263 return
      </CharString>
      <CharString index="83">
        269 2 callsubr
        return
      </CharString>
      <CharString index="84">
        rmoveto
        48 40 42 50 vhcurveto
        145 43 -767 39 callgsubr
        return
      </CharString>
      <CharString index="85">
        rmoveto
        -36 16 -33 24 -23 46 callgsubr
        hintmask 11100000
        -54 20 -37 37 40 vvcurveto
        40 37 37 54 20 46 callsubr
        -24 -23 -16 -33 -36 vvcurveto
        endchar
      </CharString>
      <CharString index="86">
        -47 callsubr
        -121 hlineto
        -60 -49 return
      </CharString>
      <CharString index="87">
        22 callsubr
        164 190 return
      </CharString>
      <CharString index="88">
        vhcurveto
        2 -6 rlineto
        -150 return
      </CharString>
      <CharString index="89">
        rmoveto
        -18 callsubr
      </CharString>
      <CharString index="90">
        vlineto
        53 45 46 54 vhcurveto
        198 83 -198 hlineto
        -54 -45 46 53 hvcurveto
        return
      </CharString>
      <CharString index="91">
        0 43 269 60 233 45 return
      </CharString>
      <CharString index="92">
        247 135 -98 -87 65 return
      </CharString>
      <CharString index="93">
        123 vvcurveto
        124 return
      </CharString>
      <CharString index="94">
        -75 83 rlineto
        62 hlineto
        75 -83 rlineto
        endchar
      </CharString>
      <CharString index="95">
        -187 -5 callgsubr
        28 43 -704 -43 67 hlineto
        565 -630 rlineto
        36 hlineto
        return
      </CharString>
      <CharString index="96">
        -41 137 124 -26 182 hhcurveto
        247 159 57 140 return
      </CharString>
      <CharString index="97">
        200 44 105 163 return
      </CharString>
      <CharString index="98">
        650 rmoveto
        -43 return
      </CharString>
      <CharString index="99">
        vlineto
        -80 -49 -29 27 callgsubr
        855 hlineto
        185 336 58 279 231 -307 82 -306 hvcurveto
        return
      </CharString>
      <CharString index="100">
        31 -12 36 -31 -46 vvcurveto
        -92 -91 -22 0 vhcurveto
        -2 4 rlineto
        42 33 11 49 28 vvcurveto
        58 -30 28 0 vhcurveto
        endchar
      </CharString>
      <CharString index="101">
        -229 -36 callgsubr
        return
      </CharString>
      <CharString index="102">
        190 rlineto
        -23 23 -12 32 28 vvcurveto
        40 22 34 41 vhcurveto
        return
      </CharString>
      <CharString index="103">
        rmoveto
        3 -98 165 -62 166 -38 rrcurveto
        return
      </CharString>
      <CharString index="104">
        84 -35 -3 callsubr
        return
      </CharString>
      <CharString index="105">
        146 -108 -20 103 -20 hstemhm
        return
      </CharString>
      <CharString index="106">
        hlineto
        -60 -49 28 80 hvcurveto
        return
      </CharString>
      <CharString index="107">
        -41 -48 hvcurveto
        -295 vlineto
        return
      </CharString>
      <CharString index="108">
        -22 -13 -21 -13 -44 hhcurveto
        return
      </CharString>
      <CharString index="109">
        82 13 callgsubr
        return
      </CharString>
      <CharString index="110">
        vvcurveto
        -49 -35 -21 -43 -53 -65 43 53 -21 vhcurveto
        -39 hlineto
        return
      </CharString>
      <CharString index="111">
        vhcurveto
        -4 3 rlineto
        return
      </CharString>
      <CharString index="112">
        40 14 16 30 vhcurveto
        316 hlineto
        154 115 41 118 140 -176 17 -127 hvcurveto
        return
      </CharString>
      <CharString index="113">
        rmoveto
        77 -103 62 -126 -128 -102 -62 -77 -77 102 -62 128 126 103 62 77 vhcurveto
        -30 return
      </CharString>
      <CharString index="114">
        -65 249 vlineto
        -319 315 rlineto
        return
      </CharString>
      <CharString index="115">
        -53 callgsubr
        endchar
      </CharString>
      <CharString index="116">
        hmoveto
        470 -524 -40 -45 -510 569 rlineto
        return
      </CharString>
      <CharString index="117">
        0 43 564 65 callgsubr
        return
      </CharString>
      <CharString index="118">
        34 -22 43 515 44 return
      </CharString>
      <CharString index="119">
        -28 -33 -54 -18 -46 hhcurveto
        return
      </CharString>
      <CharString index="120">
        -20 48 -20 hstemhm
        return
      </CharString>
      <CharString index="121">
        rmoveto
        -230 -230 -80 230 -230 80 230 230 80 -230 230 vlineto
        return
      </CharString>
      <CharString index="122">
        vlineto
        60 45 38 74 172 51 -122 -160 -140 -43 -141 -124 vhcurveto
        return
      </CharString>
      <CharString index="123">
        -34 -3 callgsubr
        return
      </CharString>
      <CharString index="124">
        57 29 33 24 18 vvcurveto
        16 -15 4 -8 vhcurveto
        return
      </CharString>
      <CharString index="125">
        49 41 28 callsubr
        return
      </CharString>
      <CharString index="126">
        -21 vhcurveto
        -3 return
      </CharString>
      <CharString index="127">
        hvcurveto
        51 -18 26 -32 -42 3 callgsubr
        return
      </CharString>
      <CharString index="128">
        -36 callgsubr
        hstem
        return
      </CharString>
      <CharString index="129">
        196 -116 116 return
      </CharString>
      <CharString index="130">
        58 callsubr
        60 48 return
      </CharString>
      <CharString index="131">
        0 43 223 return
      </CharString>
      <CharString index="132">
        110 -20 hstemhm
        return
      </CharString>
      <CharString index="133">
        50 -91 43 -142 -89 -51 -19 -22 -53 vhcurveto
        20 -27 -110 26 vlineto
        return
      </CharString>
      <CharString index="134">
        -60 4 callsubr
        return
      </CharString>
      <CharString index="135">
        -21 251 -20 hstem
        return
      </CharString>
      <CharString index="136">
        rmoveto
        -99 -37 -34 -27 -11 vhcurveto
        684 vlineto
        99 37 34 27 11 vhcurveto
        return
      </CharString>
      <CharString index="137">
        rmoveto
        55 22 44 26 26 22 -44 -55 return
      </CharString>
      <CharString index="138">
        63 49 225 return
      </CharString>
      <CharString index="139">
        36 callgsubr
        -279 -329 -94 -252 return
      </CharString>
      <CharString index="140">
        -20 hstemhm
        96 61 -61 335 427 308 -189 189 return
      </CharString>
      <CharString index="141">
        rmoveto
        42 callsubr
      </CharString>
      <CharString index="142">
        30 -85 -105 31 -113 hhcurveto
        -238 -281 -83 -216 return
      </CharString>
      <CharString index="143">
        37 -102 -123 37 -134 hhcurveto
        return
      </CharString>
      <CharString index="144">
        hhcurveto
        339 94 82 136 hvcurveto
        return
      </CharString>
      <CharString index="145">
        163 -88 -137 hvcurveto
        -105 vlineto
        return
      </CharString>
      <CharString index="146">
        51 callsubr
        28 callsubr
        return
      </CharString>
      <CharString index="147">
        267 31 callsubr
        return
      </CharString>
      <CharString index="148">
        -51 472 51 hlineto
        return
      </CharString>
      <CharString index="149">
        43 -604 -43 59 hlineto
        481 -534 rlineto
        32 hlineto
        return
      </CharString>
      <CharString index="150">
        -20 27 -20 hstemhm
        171 22 callgsubr
        return
      </CharString>
      <CharString index="151">
        127 -65 callsubr
        return
      </CharString>
      <CharString index="152">
        -4 -11 -7 -14 -4 -18 rrcurveto
        return
      </CharString>
      <CharString index="153">
        vhcurveto
        -3 -5 rlineto
        return
      </CharString>
      <CharString index="154">
        -43 120 return
      </CharString>
      <CharString index="155">
        vlineto
        28 22 23 28 vhcurveto
        101 hlineto
        55 109 return
      </CharString>
      <CharString index="156">
        52 callsubr
        -80 hlineto
        -55 -205 rlineto
        return
      </CharString>
      <CharString index="157">
        vlineto
        -150 -48 rlineto
        -80 vlineto
        150 48 rlineto
        return
      </CharString>
      <CharString index="158">
        43 12 callsubr
        return
      </CharString>
      <CharString index="159">
        67 65 213 vstem
        return
      </CharString>
      <CharString index="160">
        vhcurveto
        -105 -43 return
      </CharString>
      <CharString index="161">
        40 28 callsubr
        -294 vlineto
        -65 -40 -23 return
      </CharString>
      <CharString index="162">
        rmoveto
        -37 15 -32 22 -23 46 callgsubr
        return
      </CharString>
      <CharString index="163">
        -63 -22 40 497 43 return
      </CharString>
      <CharString index="164">
        107 -22 53 576 43 return
      </CharString>
      <CharString index="165">
        vhcurveto
        5 3 rlineto
        return
      </CharString>
      <CharString index="166">
        44 -24 -20 hstemhm
        22 59 71 322 return
      </CharString>
      <CharString index="167">
        43 -21 -20 hstemhm
        22 55 55 279 return
      </CharString>
      <CharString index="168">
        74 36 callsubr
        return
      </CharString>
      <CharString index="169">
        hintmask 1110100100000000
        return
      </CharString>
      <CharString index="170">
        29 230 return
      </CharString>
      <CharString index="171">
        164 43 return
      </CharString>
      <CharString index="172">
        23 callsubr
        25 callgsubr
        return
      </CharString>
      <CharString index="173">
        43 hstem
        303 67 66 258 return
      </CharString>
      <CharString index="174">
        -20 callsubr
        endchar
      </CharString>
      <CharString index="175">
        -146 433 rlineto
        return
      </CharString>
      <CharString index="176">
        2 -21 534 43 return
      </CharString>
      <CharString index="177">
        -23 18 callsubr
        return
      </CharString>
      <CharString index="178">
        109 96 111 return
      </CharString>
      <CharString index="179">
        80 hstem
        640 return
      </CharString>
</ttFont>
